<svg width="56" height="61" viewBox="0 0 56 61" fill="none" xmlns="http://www.w3.org/2000/svg">
<g filter="url(#filter0_d_1701_10598)">
<mask id="path-1-outside-1_1701_10598" maskUnits="userSpaceOnUse" x="15" y="13" width="26" height="31" fill="black">
<rect fill="white" x="15" y="13" width="26" height="31"/>
<path d="M31.2197 14C36.0689 14.0001 39.9999 17.9311 40 22.7803V24.5C40 31.1274 34.6274 42.5 28 42.5C21.3726 42.5 16 31.1274 16 24.5V21.8672C16 17.5225 19.5225 14 23.8672 14H31.2197ZM28 35C26.8954 35 26 35.8954 26 37C26 38.1046 26.8954 39 28 39C29.1046 39 30 38.1046 30 37C30 35.8954 29.1046 35 28 35Z"/>
</mask>
<path d="M31.2197 14C36.0689 14.0001 39.9999 17.9311 40 22.7803V24.5C40 31.1274 34.6274 42.5 28 42.5C21.3726 42.5 16 31.1274 16 24.5V21.8672C16 17.5225 19.5225 14 23.8672 14H31.2197ZM28 35C26.8954 35 26 35.8954 26 37C26 38.1046 26.8954 39 28 39C29.1046 39 30 38.1046 30 37C30 35.8954 29.1046 35 28 35Z" fill="#F6804D"/>
<path d="M31.2197 14L31.2198 13H31.2197V14ZM40 22.7803H41V22.7802L40 22.7803ZM16 24.5H15H16ZM31.2197 14L31.2197 15C35.5166 15.0001 38.9999 18.4834 39 22.7803L40 22.7803L41 22.7802C40.9999 17.3788 36.6212 13.0001 31.2198 13L31.2197 14ZM40 22.7803H39V24.5H40H41V22.7803H40ZM40 24.5H39C39 27.5979 37.7256 31.9238 35.6246 35.4762C34.5792 37.2436 33.3577 38.77 32.0393 39.8442C30.7218 40.9177 29.3595 41.5 28 41.5V42.5V43.5C29.9542 43.5 31.7487 42.6608 33.3026 41.3947C34.8555 40.1295 36.2198 38.3985 37.346 36.4944C39.5881 32.7036 41 28.0295 41 24.5H40ZM28 42.5V41.5C26.6405 41.5 25.2782 40.9177 23.9607 39.8442C22.6423 38.77 21.4208 37.2436 20.3754 35.4762C18.2744 31.9238 17 27.5979 17 24.5H16H15C15 28.0295 16.4119 32.7036 18.654 36.4944C19.7802 38.3985 21.1445 40.1295 22.6974 41.3947C24.2513 42.6608 26.0458 43.5 28 43.5V42.5ZM16 24.5H17V21.8672H16H15V24.5H16ZM16 21.8672H17C17 18.0748 20.0748 15 23.8672 15V14V13C18.9702 13 15 16.9702 15 21.8672H16ZM23.8672 14V15H31.2197V14V13H23.8672V14ZM28 35V34C26.3431 34 25 35.3431 25 37H26H27C27 36.4477 27.4477 36 28 36V35ZM26 37H25C25 38.6569 26.3431 40 28 40V39V38C27.4477 38 27 37.5523 27 37H26ZM28 39V40C29.6569 40 31 38.6569 31 37H30H29C29 37.5523 28.5523 38 28 38V39ZM30 37H31C31 35.3431 29.6569 34 28 34V35V36C28.5523 36 29 36.4477 29 37H30Z" fill="#FFFAFA" mask="url(#path-1-outside-1_1701_10598)"/>
<path d="M25.536 21.916C25.536 23.3652 24.5761 24.54 23.392 24.54C22.2079 24.54 21.248 23.3652 21.248 21.916C21.248 20.4668 22.2079 19.292 23.392 19.292C24.5761 19.292 25.536 20.4668 25.536 21.916Z" fill="#FFFAFA"/>
<path d="M23.8718 22.684C23.8718 23.5676 23.3704 24.284 22.7518 24.284C22.1333 24.284 21.6318 23.5676 21.6318 22.684C21.6318 21.8003 22.1333 21.084 22.7518 21.084C23.3704 21.084 23.8718 21.8003 23.8718 22.684Z" fill="#4A3B35"/>
<path d="M30.912 21.916C30.912 23.3652 29.9521 24.54 28.768 24.54C27.5839 24.54 26.624 23.3652 26.624 21.916C26.624 20.4668 27.5839 19.292 28.768 19.292C29.9521 19.292 30.912 20.4668 30.912 21.916Z" fill="#FFFAFA"/>
<path d="M29.2478 22.684C29.2478 23.5676 28.7464 24.284 28.1278 24.284C27.5093 24.284 27.0078 23.5676 27.0078 22.684C27.0078 21.8003 27.5093 21.084 28.1278 21.084C28.7464 21.084 29.2478 21.8003 29.2478 22.684Z" fill="#4A3B35"/>
<path d="M24.6529 24.3096C24.6529 23.9703 24.3779 23.6949 24.0386 23.6948C23.6993 23.6948 23.4238 23.9703 23.4238 24.3096C23.424 24.6489 23.6993 24.9239 24.0386 24.9239V25.1798L23.9493 25.1754C23.5397 25.1337 23.214 24.8081 23.1724 24.3985L23.168 24.3096C23.168 23.8289 23.5579 23.439 24.0386 23.439L24.1275 23.4434C24.5664 23.488 24.9088 23.8589 24.9088 24.3096L24.9044 24.3985C24.8598 24.8373 24.4892 25.1797 24.0386 25.1798V24.9239C24.3778 24.9238 24.6528 24.6488 24.6529 24.3096Z" fill="#2A67B9"/>
<path d="M27.2637 24.3096C27.2637 23.9703 26.9887 23.6949 26.6495 23.6948C26.3101 23.6948 26.0347 23.9703 26.0347 24.3096C26.0348 24.6489 26.3102 24.9239 26.6495 24.9239V25.1798L26.5601 25.1754C26.1505 25.1337 25.8248 24.8081 25.7832 24.3985L25.7788 24.3096C25.7788 23.8289 26.1687 23.439 26.6495 23.439L26.7383 23.4434C27.1772 23.488 27.5196 23.8589 27.5196 24.3096L27.5152 24.3985C27.4706 24.8373 27.1 25.1797 26.6495 25.1798V24.9239C26.9886 24.9238 27.2636 24.6488 27.2637 24.3096Z" fill="#2A67B9"/>
<path d="M25.9971 23.981V24.2368H24.8364V23.981H25.9971Z" fill="#2A67B9"/>
</g>
<defs>
<filter id="filter0_d_1701_10598" x="0" y="0" width="56" height="60.5" filterUnits="userSpaceOnUse" color-interpolation-filters="sRGB">
<feFlood flood-opacity="0" result="BackgroundImageFix"/>
<feColorMatrix in="SourceAlpha" type="matrix" values="0 0 0 0 0 0 0 0 0 0 0 0 0 0 0 0 0 0 127 0" result="hardAlpha"/>
<feOffset dy="2"/>
<feGaussianBlur stdDeviation="7.5"/>
<feComposite in2="hardAlpha" operator="out"/>
<feColorMatrix type="matrix" values="0 0 0 0 0.470833 0 0 0 0 0 0 0 0 0 0 0 0 0 0.1 0"/>
<feBlend mode="normal" in2="BackgroundImageFix" result="effect1_dropShadow_1701_10598"/>
<feBlend mode="normal" in="SourceGraphic" in2="effect1_dropShadow_1701_10598" result="shape"/>
</filter>
</defs>
</svg>
