<svg width="108" height="117" viewBox="0 0 108 117" fill="none" xmlns="http://www.w3.org/2000/svg">
<g filter="url(#filter0_d_1654_11807)">
<path d="M60.4395 26C70.1378 26.0002 77.9998 33.8622 78 43.5605V47C78 60.2548 67.2548 83 54 83C40.7452 83 30 60.2548 30 47V41.7334C30.0001 33.0441 37.0441 26.0001 45.7334 26H60.4395ZM54 68C51.791 68.0001 50 69.7909 50 72C50 74.2091 51.791 75.9999 54 76C56.2091 76 58 74.2091 58 72C58 69.7909 56.2091 68 54 68Z" fill="#F6804D"/>
<path d="M49.0728 41.8327C49.0728 44.7311 47.153 47.0807 44.7848 47.0807C42.4166 47.0807 40.4968 44.7311 40.4968 41.8327C40.4968 38.9343 42.4166 36.5847 44.7848 36.5847C47.153 36.5847 49.0728 38.9343 49.0728 41.8327Z" fill="#FFFAFA"/>
<path d="M45.7444 43.3685C45.7444 45.1358 44.7415 46.5685 43.5044 46.5685C42.2673 46.5685 41.2644 45.1358 41.2644 43.3685C41.2644 41.6011 42.2673 40.1685 43.5044 40.1685C44.7415 40.1685 45.7444 41.6011 45.7444 43.3685Z" fill="#4A3B35"/>
<path d="M59.8248 41.8327C59.8248 44.7311 57.905 47.0807 55.5368 47.0807C53.1686 47.0807 51.2488 44.7311 51.2488 41.8327C51.2488 38.9343 53.1686 36.5847 55.5368 36.5847C57.905 36.5847 59.8248 38.9343 59.8248 41.8327Z" fill="#FFFAFA"/>
<path d="M56.4964 43.3685C56.4964 45.1358 55.4935 46.5685 54.2564 46.5685C53.0192 46.5685 52.0164 45.1358 52.0164 43.3685C52.0164 41.6011 53.0192 40.1685 54.2564 40.1685C55.4935 40.1685 56.4964 41.6011 56.4964 43.3685Z" fill="#4A3B35"/>
<path d="M47.3053 46.6197C47.3053 45.9412 46.7552 45.3904 46.0767 45.3902C45.3981 45.3902 44.8472 45.941 44.8472 46.6197C44.8474 47.2982 45.3982 47.8483 46.0767 47.8483V48.36L45.898 48.3512C45.0789 48.2679 44.4275 47.6166 44.3442 46.7974L44.3354 46.6197C44.3354 45.6582 45.1153 44.8784 46.0767 44.8784L46.2545 44.8872C47.1323 44.9764 47.817 45.7184 47.817 46.6197L47.8083 46.7974C47.7191 47.6751 46.9779 48.3598 46.0767 48.36V47.8483C46.7551 47.8481 47.3051 47.2981 47.3053 46.6197Z" fill="#2A67B9"/>
<path d="M52.5275 46.6197C52.5275 45.9412 51.9774 45.3904 51.2989 45.3902C50.6202 45.3902 50.0694 45.941 50.0694 46.6197C50.0696 47.2982 50.6204 47.8483 51.2989 47.8483V48.36L51.1202 48.3512C50.3011 48.2679 49.6497 47.6166 49.5664 46.7974L49.5576 46.6197C49.5576 45.6582 50.3374 44.8784 51.2989 44.8784L51.4766 44.8872C52.3544 44.9764 53.0392 45.7184 53.0392 46.6197L53.0304 46.7974C52.9412 47.6751 52.2 48.3598 51.2989 48.36V47.8483C51.9773 47.8481 52.5273 47.2981 52.5275 46.6197Z" fill="#2A67B9"/>
<path d="M49.9937 45.9624V46.4741H47.6724V45.9624H49.9937Z" fill="#2A67B9"/>
</g>
<defs>
<filter id="filter0_d_1654_11807" x="0" y="0" width="108" height="117" filterUnits="userSpaceOnUse" color-interpolation-filters="sRGB">
<feFlood flood-opacity="0" result="BackgroundImageFix"/>
<feColorMatrix in="SourceAlpha" type="matrix" values="0 0 0 0 0 0 0 0 0 0 0 0 0 0 0 0 0 0 127 0" result="hardAlpha"/>
<feOffset dy="4"/>
<feGaussianBlur stdDeviation="15"/>
<feComposite in2="hardAlpha" operator="out"/>
<feColorMatrix type="matrix" values="0 0 0 0 0.470833 0 0 0 0 0 0 0 0 0 0 0 0 0 0.1 0"/>
<feBlend mode="normal" in2="BackgroundImageFix" result="effect1_dropShadow_1654_11807"/>
<feBlend mode="normal" in="SourceGraphic" in2="effect1_dropShadow_1654_11807" result="shape"/>
</filter>
</defs>
</svg>
