<svg width="20" height="14" viewBox="0 0 20 14" fill="none" xmlns="http://www.w3.org/2000/svg">
<path fill-rule="evenodd" clip-rule="evenodd" d="M19.227 2.03301C19.227 1.39996 18.7494 0.88678 18.1603 0.88678H17.0936C16.5045 0.88678 16.027 1.39996 16.027 2.03301V11.967C16.027 12.6 16.5045 13.1132 17.0936 13.1132H18.1603C18.7494 13.1132 19.227 12.6 19.227 11.967V2.03301ZM11.7929 3.33206H12.8595C13.4486 3.33206 13.9262 3.85756 13.9262 4.5058V11.9395C13.9262 12.5877 13.4486 13.1132 12.8595 13.1132H11.7929C11.2038 13.1132 10.7262 12.5877 10.7262 11.9395V4.5058C10.7262 3.85756 11.2038 3.33206 11.7929 3.33206ZM7.46109 5.98111H6.39443C5.80532 5.98111 5.32776 6.5133 5.32776 7.16979V11.9245C5.32776 12.581 5.80532 13.1132 6.39443 13.1132H7.46109C8.0502 13.1132 8.52776 12.581 8.52776 11.9245V7.16979C8.52776 6.5133 8.0502 5.98111 7.46109 5.98111ZM2.16031 8.4264H1.09364C0.504541 8.4264 0.0269775 8.95099 0.0269775 9.5981V11.9415C0.0269775 12.5886 0.504541 13.1132 1.09364 13.1132H2.16031C2.74941 13.1132 3.22698 12.5886 3.22698 11.9415V9.5981C3.22698 8.95099 2.74941 8.4264 2.16031 8.4264Z" fill="#383325"/>
</svg>
