<svg width="32" height="32" viewBox="0 0 32 32" fill="none" xmlns="http://www.w3.org/2000/svg">
  <!-- 종이 배경 그림자 -->
  <rect x="4" y="3" width="24" height="26" rx="3" fill="#F3F4F6"/>
  
  <!-- 종이 메인 -->
  <rect x="3" y="2" width="24" height="26" rx="3" fill="white" stroke="#D1D5DB" stroke-width="0.5"/>
  
  <!-- 종이 내부 하이라이트 -->
  <rect x="4" y="3" width="22" height="24" rx="2.5" fill="#FAFAFA"/>
  
  <!-- 종이 위 텍스트 라인들 -->
  <rect x="6" y="6" width="18" height="1.5" rx="0.75" fill="#E5E7EB" opacity="0.7"/>
  <rect x="6" y="9" width="16" height="1.5" rx="0.75" fill="#E5E7EB" opacity="0.7"/>
  <rect x="6" y="12" width="14" height="1.5" rx="0.75" fill="#E5E7EB" opacity="0.7"/>
  <rect x="6" y="15" width="12" height="1.5" rx="0.75" fill="#E5E7EB" opacity="0.7"/>
  <rect x="6" y="18" width="10" height="1.5" rx="0.75" fill="#E5E7EB" opacity="0.7"/>
  <rect x="6" y="21" width="8" height="1.5" rx="0.75" fill="#E5E7EB" opacity="0.7"/>
  
  <!-- 연필 그림자 -->
  <path d="M10 22L20 12" stroke="#9CA3AF" stroke-width="3" stroke-linecap="round" opacity="0.3"/>
  
  <!-- 연필 몸통 -->
  <path d="M9 21L19 11" stroke="#FCD34D" stroke-width="2.5" stroke-linecap="round"/>
  
  <!-- 연필 몸통 하이라이트 -->
  <path d="M9.5 20.5L18.5 11.5" stroke="#FEF3C7" stroke-width="1" stroke-linecap="round"/>
  
  <!-- 연필 지우개 -->
  <circle cx="19.5" cy="10.5" r="2" fill="#F472B6"/>
  <circle cx="19.5" cy="10.5" r="1.5" fill="#F9A8D4"/>
  
  <!-- 연필 지우개 하이라이트 -->
  <circle cx="19" cy="10" r="0.5" fill="#FCE7F3"/>
  
  <!-- 연필심 -->
  <path d="M8 22L10 20" stroke="#1F2937" stroke-width="2" stroke-linecap="round"/>
  
  <!-- 연필심 하이라이트 -->
  <path d="M8.2 21.8L9.8 20.2" stroke="#374151" stroke-width="1" stroke-linecap="round"/>
  
  <!-- 연필이 종이에 드리우는 그림자 -->
  <path d="M9 21.5L19 11.5" stroke="#D1D5DB" stroke-width="1" stroke-linecap="round" opacity="0.4"/>
</svg>
