<svg width="331" height="89" viewBox="0 0 331 89" fill="none" xmlns="http://www.w3.org/2000/svg">
<g filter="url(#filter0_d_1486_3990)">
<rect x="30.5" y="26" width="86" height="29" rx="14.5" fill="#9E6D59" shape-rendering="crispEdges"/>
<path d="M48.4883 43.9336H45.877V44.9453C46.515 44.9408 47.0368 44.9271 47.4424 44.9043C47.848 44.877 48.265 44.8223 48.6934 44.7402L48.8164 45.875C48.3105 45.9616 47.8206 46.0163 47.3467 46.0391C46.8773 46.0664 46.1823 46.0846 45.2617 46.0938H45.0977H44.3867V42.8672H47.0254V42.0195H44.373V40.8848H48.4883V43.9336ZM53.2598 46.1074H49.1445V40.8848H53.2598V46.1074ZM50.4707 44.9727H51.9336V42.0059H50.4707V44.9727ZM53.2598 40.3652H51.7422V37.7812H49.623V36.5645H51.7422V33.8574H53.2598V40.3652ZM47.4082 35.7168C47.4036 36.1725 47.513 36.6191 47.7363 37.0566C47.9596 37.4896 48.2878 37.877 48.7207 38.2188C49.1582 38.5605 49.6823 38.8249 50.293 39.0117L49.582 40.2012C48.8984 39.9961 48.3083 39.6908 47.8115 39.2852C47.3148 38.875 46.9274 38.3919 46.6494 37.8359C46.3623 38.4512 45.959 38.9889 45.4395 39.4492C44.9199 39.9095 44.3092 40.2513 43.6074 40.4746L42.8555 39.2852C43.4798 39.0755 44.0199 38.7839 44.4756 38.4102C44.9313 38.0365 45.2777 37.6172 45.5146 37.1523C45.7562 36.6829 45.877 36.209 45.877 35.7305V35.6758H43.2793V34.4727H49.9648V35.6758H47.4082V35.7168ZM65.7905 41.459H54.5249V40.2422H65.7905V41.459ZM64.519 45.9707H55.9194V42.375H57.437V44.7402H64.519V45.9707ZM60.144 34.2539C61.0373 34.2539 61.8188 34.3542 62.4888 34.5547C63.1587 34.7552 63.6759 35.0446 64.0405 35.4229C64.4097 35.7965 64.5965 36.2409 64.6011 36.7559C64.5965 37.2754 64.4097 37.7266 64.0405 38.1094C63.6759 38.4876 63.1587 38.7793 62.4888 38.9844C61.8188 39.1849 61.0373 39.2852 60.144 39.2852C59.2508 39.2852 58.467 39.1849 57.7925 38.9844C57.1226 38.7793 56.603 38.4876 56.2339 38.1094C55.8693 37.7266 55.687 37.2754 55.687 36.7559C55.687 36.2409 55.8693 35.7965 56.2339 35.4229C56.603 35.0446 57.1226 34.7552 57.7925 34.5547C58.467 34.3542 59.2508 34.2539 60.144 34.2539ZM60.144 35.4707C59.2417 35.4707 58.5353 35.5846 58.0249 35.8125C57.519 36.0358 57.2684 36.3503 57.2729 36.7559C57.2684 37.0293 57.38 37.264 57.6079 37.46C57.8403 37.6559 58.1707 37.804 58.5991 37.9043C59.0321 38 59.547 38.0456 60.144 38.041C61.0509 38.0501 61.7573 37.943 62.2632 37.7197C62.7736 37.4919 63.0288 37.1706 63.0288 36.7559C63.0288 36.3457 62.7736 36.029 62.2632 35.8057C61.7573 35.5824 61.0509 35.4707 60.144 35.4707ZM79.3267 42.9355H77.8091V39.873H74.8628C74.5666 40.2103 74.2043 40.4723 73.7759 40.6592C73.352 40.846 72.8963 40.9395 72.4087 40.9395C71.798 40.9395 71.242 40.8027 70.7407 40.5293C70.244 40.2559 69.852 39.8799 69.5649 39.4014C69.2824 38.9183 69.1411 38.3783 69.1411 37.7812C69.1411 37.1751 69.2824 36.6305 69.5649 36.1475C69.852 35.6644 70.244 35.2884 70.7407 35.0195C71.2375 34.7461 71.7935 34.6094 72.4087 34.6094C72.8963 34.6094 73.3498 34.7028 73.769 34.8896C74.1929 35.0719 74.5552 35.3294 74.856 35.6621H77.8091V33.8711H79.3267V42.9355ZM79.6411 45.9707H71.2192V42.0059H72.7368V44.7402H79.6411V45.9707ZM72.4087 35.9629C72.0532 35.9629 71.7388 36.0381 71.4653 36.1885C71.1919 36.3389 70.9777 36.5508 70.8227 36.8242C70.6678 37.0977 70.5903 37.4167 70.5903 37.7812C70.5903 38.1413 70.6678 38.458 70.8227 38.7314C70.9777 39.0049 71.1919 39.2168 71.4653 39.3672C71.7388 39.513 72.0532 39.5859 72.4087 39.5859C72.7459 39.5859 73.049 39.5107 73.3179 39.3604C73.5867 39.21 73.7987 38.998 73.9536 38.7246C74.1131 38.4512 74.1951 38.1367 74.1997 37.7812C74.1951 37.4212 74.1131 37.1045 73.9536 36.8311C73.7987 36.5531 73.5867 36.3389 73.3179 36.1885C73.049 36.0381 72.7459 35.9629 72.4087 35.9629ZM75.5259 36.8926C75.6079 37.1979 75.6489 37.4941 75.6489 37.7812C75.6489 38.0729 75.6102 38.36 75.5327 38.6426H77.8091V36.8926H75.5259ZM86.498 38.2324H82.6016V39.6953C83.6406 39.6908 84.4814 39.668 85.124 39.627C85.7666 39.5859 86.4023 39.5085 87.0312 39.3945L87.1816 40.625C86.4798 40.748 85.7643 40.8301 85.0351 40.8711C84.306 40.9076 83.2943 40.9258 82 40.9258H81.0976V37.0703H84.9805V35.7578H81.0703V34.5273H86.498V38.2324ZM90.9414 41.418H89.4238V39.3809H87.2637V38.1504H89.4238V36.8516H87.2637V35.6211H89.4238V33.8711H90.9414V41.418ZM86.7851 41.623C87.651 41.623 88.4007 41.7165 89.0342 41.9033C89.6676 42.0856 90.153 42.3522 90.4902 42.7031C90.8275 43.0495 90.9961 43.4642 90.9961 43.9473C90.9961 44.4349 90.8275 44.8519 90.4902 45.1982C90.153 45.5446 89.6676 45.8066 89.0342 45.9844C88.4053 46.1667 87.6556 46.2578 86.7851 46.2578C85.9056 46.2578 85.1491 46.1667 84.5156 45.9844C83.8822 45.8066 83.3968 45.5446 83.0596 45.1982C82.7223 44.8519 82.556 44.4349 82.5605 43.9473C82.556 43.4642 82.7223 43.0495 83.0596 42.7031C83.3968 42.3522 83.8822 42.0856 84.5156 41.9033C85.1536 41.7165 85.9101 41.623 86.7851 41.623ZM86.7851 42.7988C85.9101 42.7988 85.2425 42.8968 84.7822 43.0928C84.3219 43.2887 84.0918 43.5736 84.0918 43.9473C84.0918 44.321 84.3219 44.6058 84.7822 44.8018C85.2425 44.9977 85.9101 45.0957 86.7851 45.0957C87.651 45.0957 88.3187 44.9977 88.7881 44.8018C89.2575 44.6058 89.4922 44.321 89.4922 43.9473C89.4922 43.5736 89.2575 43.2887 88.7881 43.0928C88.3187 42.8968 87.651 42.7988 86.7851 42.7988ZM102.843 46.2168H101.394V39.9141H99.9995V45.5879H98.605V34.0898H99.9995V38.6973H101.394V33.8574H102.843V46.2168ZM97.2104 36.5508H94.1206V42.0469C94.8406 42.0378 95.4901 42.0104 96.0688 41.9648C96.6476 41.9193 97.2332 41.8418 97.8257 41.7324L97.9351 42.9766C97.2515 43.1133 96.577 43.2044 95.9116 43.25C95.2462 43.2956 94.4168 43.3229 93.4233 43.332H92.5893V35.3203H97.2104V36.5508Z" fill="#FFFAFA"/>
</g>
<g filter="url(#filter1_d_1486_3990)">
<rect x="122.5" y="26" width="86" height="29" rx="14.5" fill="#9E6D59" shape-rendering="crispEdges"/>
<path d="M144.658 36.9062H146.381V38.1641H144.658V41.0762H143.141V33.8574H144.658V36.9062ZM138.178 42.6348H143.141V41.5684H144.658V46.0664H136.674V41.5684H138.178V42.6348ZM143.141 44.8633V43.8105H138.178V44.8633H143.141ZM142.252 36.2227H134.924V35.0059H137.836V33.7617H139.354V35.0059H142.252V36.2227ZM138.588 36.6465C139.18 36.6465 139.704 36.7376 140.16 36.9199C140.616 37.0977 140.969 37.3506 141.22 37.6787C141.475 38.0068 141.605 38.3874 141.609 38.8203C141.605 39.2533 141.475 39.6338 141.22 39.9619C140.969 40.29 140.616 40.5452 140.16 40.7275C139.704 40.9053 139.18 40.9941 138.588 40.9941C137.991 40.9941 137.462 40.9053 137.002 40.7275C136.546 40.5452 136.191 40.29 135.936 39.9619C135.68 39.6338 135.553 39.2533 135.553 38.8203C135.553 38.3874 135.68 38.0068 135.936 37.6787C136.191 37.3506 136.546 37.0977 137.002 36.9199C137.462 36.7376 137.991 36.6465 138.588 36.6465ZM138.588 37.7676C138.114 37.7676 137.736 37.861 137.453 38.0479C137.171 38.2347 137.029 38.4922 137.029 38.8203C137.029 39.153 137.168 39.4128 137.446 39.5996C137.729 39.7819 138.109 39.873 138.588 39.873C139.066 39.873 139.447 39.7796 139.729 39.5928C140.017 39.4059 140.16 39.1484 140.16 38.8203C140.16 38.4967 140.017 38.2415 139.729 38.0547C139.442 37.8633 139.062 37.7676 138.588 37.7676ZM156.82 46.2305H155.316V33.8574H156.82V46.2305ZM153.019 39.5723H148.767V42.0605C149.811 42.0514 150.768 42.015 151.638 41.9512C152.513 41.8874 153.406 41.778 154.318 41.623L154.455 42.8672C153.475 43.0404 152.511 43.1566 151.563 43.2158C150.615 43.2751 149.524 43.3047 148.289 43.3047H147.208V38.3691H151.474V36.168H147.195V34.9375H153.019V39.5723ZM162.665 35.6348C162.66 36.2044 162.768 36.7422 162.986 37.248C163.205 37.7539 163.533 38.2005 163.971 38.5879C164.413 38.9707 164.948 39.2624 165.577 39.4629L164.757 40.6523C164.091 40.4199 163.522 40.0872 163.048 39.6543C162.578 39.2214 162.209 38.7064 161.94 38.1094C161.662 38.7975 161.264 39.3945 160.744 39.9004C160.225 40.4017 159.598 40.7799 158.864 41.0352L158.058 39.8047C158.723 39.5859 159.286 39.2692 159.746 38.8545C160.206 38.4398 160.553 37.9613 160.785 37.4189C161.018 36.8766 161.134 36.3047 161.134 35.7031V34.5273H162.665V35.6348ZM168.489 41.1309H166.972V37.4941H164.511V36.25H166.972V33.8574H168.489V41.1309ZM164.306 41.459C165.176 41.459 165.928 41.5524 166.562 41.7393C167.2 41.9261 167.687 42.1995 168.024 42.5596C168.362 42.915 168.53 43.3411 168.53 43.8379C168.53 44.3346 168.362 44.7607 168.024 45.1162C167.687 45.4717 167.202 45.7406 166.568 45.9229C165.935 46.1097 165.181 46.2031 164.306 46.2031C163.435 46.2031 162.683 46.1097 162.05 45.9229C161.421 45.7406 160.938 45.4717 160.601 45.1162C160.268 44.7607 160.104 44.3346 160.108 43.8379C160.104 43.3411 160.268 42.915 160.601 42.5596C160.938 42.1995 161.423 41.9261 162.057 41.7393C162.69 41.5524 163.44 41.459 164.306 41.459ZM164.306 42.6348C163.44 42.6348 162.774 42.7396 162.31 42.9492C161.845 43.1543 161.612 43.4505 161.612 43.8379C161.612 44.2161 161.845 44.5078 162.31 44.7129C162.779 44.9134 163.444 45.0137 164.306 45.0137C165.167 45.0137 165.832 44.9111 166.302 44.7061C166.776 44.501 167.013 44.2116 167.013 43.8379C167.013 43.4505 166.778 43.1543 166.309 42.9492C165.839 42.7396 165.172 42.6348 164.306 42.6348ZM183.857 42.5254H178.963V46.2305H177.459V42.5254H172.592V41.2812H183.857V42.5254ZM182.805 36.5234H178.99C179.04 36.9382 179.245 37.3415 179.605 37.7334C179.965 38.1253 180.458 38.4648 181.082 38.752C181.706 39.0391 182.417 39.2305 183.215 39.3262L182.654 40.5293C181.652 40.4017 180.763 40.1305 179.988 39.7158C179.218 39.2965 178.628 38.7839 178.218 38.1777C177.808 38.7884 177.215 39.3011 176.44 39.7158C175.666 40.1305 174.77 40.4017 173.754 40.5293L173.207 39.3262C174.005 39.2305 174.715 39.0413 175.34 38.7588C175.964 38.4717 176.459 38.1322 176.823 37.7402C177.188 37.3483 177.395 36.9427 177.445 36.5234H173.631V35.3203H177.459V33.8711H178.963V35.3203H182.805V36.5234ZM194.091 35.7168C194.091 36.5052 194.073 37.2048 194.037 37.8154C194 38.4215 193.909 39.112 193.763 39.8867H195.472V41.1172H190.564V46.2305H189.033V41.1172H184.207V39.8867H192.218C192.369 39.1393 192.464 38.4603 192.505 37.8496C192.551 37.2389 192.574 36.569 192.574 35.8398H185.533V34.6094H194.091V35.7168Z" fill="#FFFAFA"/>
</g>
<g filter="url(#filter2_d_1486_3990)">
<rect x="214.5" y="26" width="86" height="29" rx="14.5" fill="#9E6D59" shape-rendering="crispEdges"/>
<path d="M236.959 41.541H228.291V34.8281H236.85V36.0586H229.836V37.5488H236.562V38.7383H229.836V40.3379H236.959V41.541ZM238.203 44.7129H226.91V43.4688H238.203V44.7129ZM243.419 38.6016H240.535V40.1465C241.296 40.1374 241.959 40.1123 242.524 40.0713C243.094 40.0257 243.675 39.946 244.267 39.832L244.417 41.0352C243.734 41.1673 243.059 41.2562 242.394 41.3018C241.729 41.3428 240.89 41.3633 239.878 41.3633H239.044V37.4941H241.943V36.0039H239.031V34.8145H243.419V38.6016ZM249.093 43.1543H247.644V33.8711H249.093V43.1543ZM246.591 42.8398H245.156V38.3281H243.884V37.0703H245.156V34.0898H246.591V42.8398ZM249.435 45.9707H240.822V42.2246H242.339V44.7402H249.435V45.9707ZM260.175 40.8711H251.507V34.9375H260.079V36.168H253.011V39.6543H260.175V40.8711ZM261.433 44.6445H250.14V43.3867H261.433V44.6445ZM275.857 40.7617H270.963V41.7939C272.079 41.8669 272.945 42.0924 273.561 42.4707C274.176 42.8444 274.486 43.3503 274.49 43.9883C274.486 44.4577 274.312 44.8587 273.971 45.1914C273.629 45.5241 273.139 45.7747 272.501 45.9434C271.863 46.1165 271.1 46.2031 270.211 46.2031C269.313 46.2031 268.541 46.1165 267.894 45.9434C267.251 45.7747 266.759 45.5241 266.417 45.1914C266.075 44.8587 265.904 44.4577 265.904 43.9883C265.904 43.3503 266.214 42.8421 266.834 42.4639C267.454 42.0856 268.329 41.8623 269.459 41.7939V40.7617H264.592V39.5312H275.857V40.7617ZM270.211 42.9355C269.304 42.9447 268.616 43.0381 268.146 43.2158C267.677 43.389 267.445 43.6465 267.449 43.9883C267.445 44.3301 267.677 44.5921 268.146 44.7744C268.62 44.9521 269.309 45.041 270.211 45.041C271.095 45.041 271.774 44.9521 272.248 44.7744C272.727 44.5921 272.968 44.3301 272.973 43.9883C272.968 43.651 272.729 43.3936 272.255 43.2158C271.781 43.0381 271.1 42.9447 270.211 42.9355ZM274.846 35.6211H271.284C271.366 35.9629 271.58 36.2842 271.927 36.585C272.278 36.8857 272.743 37.141 273.321 37.3506C273.905 37.5602 274.572 37.6992 275.324 37.7676L274.791 38.9707C273.679 38.8568 272.722 38.5902 271.92 38.1709C271.118 37.7516 270.548 37.2275 270.211 36.5986C269.874 37.2275 269.306 37.7539 268.509 38.1777C267.716 38.597 266.766 38.8613 265.658 38.9707L265.139 37.7676C265.872 37.6992 266.526 37.5602 267.101 37.3506C267.675 37.141 268.137 36.8857 268.488 36.585C268.839 36.2796 269.058 35.9583 269.145 35.6211H265.617V34.4043H274.846V35.6211ZM286.501 40.8574H284.97V33.8711H286.501V40.8574ZM286.501 46.0664H278.298V41.4727H286.501V46.0664ZM279.802 44.8359H285.011V42.6758H279.802V44.8359ZM280.814 35.5391C280.814 36.0677 280.93 36.5736 281.163 37.0566C281.395 37.5397 281.735 37.9681 282.181 38.3418C282.628 38.7155 283.166 39.0026 283.794 39.2031L283.056 40.3652C282.354 40.1465 281.748 39.8206 281.238 39.3877C280.727 38.9502 280.329 38.4307 280.041 37.8291C279.754 38.4808 279.349 39.0482 278.825 39.5312C278.305 40.0098 277.683 40.3698 276.958 40.6113L276.207 39.4082C276.858 39.1986 277.412 38.8955 277.868 38.499C278.323 38.1025 278.665 37.6491 278.893 37.1387C279.125 36.6237 279.242 36.0905 279.242 35.5391V34.3359H280.814V35.5391Z" fill="#FFFAFA"/>
</g>
<defs>
<filter id="filter0_d_1486_3990" x="0.5" y="0" width="146" height="89" filterUnits="userSpaceOnUse" color-interpolation-filters="sRGB">
<feFlood flood-opacity="0" result="BackgroundImageFix"/>
<feColorMatrix in="SourceAlpha" type="matrix" values="0 0 0 0 0 0 0 0 0 0 0 0 0 0 0 0 0 0 127 0" result="hardAlpha"/>
<feOffset dy="4"/>
<feGaussianBlur stdDeviation="15"/>
<feComposite in2="hardAlpha" operator="out"/>
<feColorMatrix type="matrix" values="0 0 0 0 0.470833 0 0 0 0 0 0 0 0 0 0 0 0 0 0.1 0"/>
<feBlend mode="normal" in2="BackgroundImageFix" result="effect1_dropShadow_1486_3990"/>
<feBlend mode="normal" in="SourceGraphic" in2="effect1_dropShadow_1486_3990" result="shape"/>
</filter>
<filter id="filter1_d_1486_3990" x="92.5" y="0" width="146" height="89" filterUnits="userSpaceOnUse" color-interpolation-filters="sRGB">
<feFlood flood-opacity="0" result="BackgroundImageFix"/>
<feColorMatrix in="SourceAlpha" type="matrix" values="0 0 0 0 0 0 0 0 0 0 0 0 0 0 0 0 0 0 127 0" result="hardAlpha"/>
<feOffset dy="4"/>
<feGaussianBlur stdDeviation="15"/>
<feComposite in2="hardAlpha" operator="out"/>
<feColorMatrix type="matrix" values="0 0 0 0 0.470833 0 0 0 0 0 0 0 0 0 0 0 0 0 0.1 0"/>
<feBlend mode="normal" in2="BackgroundImageFix" result="effect1_dropShadow_1486_3990"/>
<feBlend mode="normal" in="SourceGraphic" in2="effect1_dropShadow_1486_3990" result="shape"/>
</filter>
<filter id="filter2_d_1486_3990" x="184.5" y="0" width="146" height="89" filterUnits="userSpaceOnUse" color-interpolation-filters="sRGB">
<feFlood flood-opacity="0" result="BackgroundImageFix"/>
<feColorMatrix in="SourceAlpha" type="matrix" values="0 0 0 0 0 0 0 0 0 0 0 0 0 0 0 0 0 0 127 0" result="hardAlpha"/>
<feOffset dy="4"/>
<feGaussianBlur stdDeviation="15"/>
<feComposite in2="hardAlpha" operator="out"/>
<feColorMatrix type="matrix" values="0 0 0 0 0.470833 0 0 0 0 0 0 0 0 0 0 0 0 0 0.1 0"/>
<feBlend mode="normal" in2="BackgroundImageFix" result="effect1_dropShadow_1486_3990"/>
<feBlend mode="normal" in="SourceGraphic" in2="effect1_dropShadow_1486_3990" result="shape"/>
</filter>
</defs>
</svg>
