<svg width="333" height="333" viewBox="0 0 333 333" fill="none" xmlns="http://www.w3.org/2000/svg">
<path d="M21.5 12H171.5V162H21.5V12Z" fill="#FFFAFA"/>
<path d="M21.5 12H171.5V162H21.5V12Z" stroke="#F3633F"/>
<path d="M53.7585 38.1094H45.3679V39.7383C47.2898 39.8555 48.7781 40.2305 49.8328 40.8633C50.8953 41.4883 51.4304 42.3281 51.4382 43.3828C51.4304 44.1641 51.1335 44.8281 50.5476 45.375C49.9617 45.9297 49.1179 46.3477 48.0164 46.6289C46.9226 46.918 45.6101 47.0625 44.0789 47.0625C42.5398 47.0625 41.2195 46.918 40.1179 46.6289C39.0164 46.3477 38.1726 45.9297 37.5867 45.375C37.0085 44.8281 36.7195 44.1641 36.7195 43.3828C36.7195 42.3281 37.2468 41.4883 38.3015 40.8633C39.364 40.2305 40.8601 39.8555 42.7898 39.7383V38.1094H34.446V36.0234H53.7585V38.1094ZM51.9773 28.7578H49.071V32.3906H51.8601V34.4766H36.2976V32.3906H39.0867V28.7578H36.1804V26.625H51.9773V28.7578ZM44.0789 41.6719C42.5242 41.6719 41.3406 41.8164 40.5281 42.1055C39.7234 42.3945 39.321 42.8203 39.321 43.3828C39.321 43.9531 39.7234 44.3867 40.5281 44.6836C41.3406 44.9727 42.5242 45.1172 44.0789 45.1172C45.6023 45.1172 46.7664 44.9727 47.571 44.6836C48.3757 44.3867 48.782 43.9531 48.7898 43.3828C48.782 42.8203 48.3718 42.3945 47.5593 42.1055C46.7546 41.8164 45.5945 41.6719 44.0789 41.6719ZM46.446 32.3906V28.7578H41.6882V32.3906H46.446ZM74.0627 44.5078H54.7034V42.375H59.1799V37.0195C58.3206 36.5195 57.6526 35.8984 57.176 35.1562C56.7073 34.4141 56.4768 33.5781 56.4846 32.6484C56.4768 31.5469 56.8088 30.5703 57.4807 29.7188C58.1526 28.8672 59.0862 28.2109 60.2815 27.75C61.4768 27.2812 62.8284 27.0469 64.3362 27.0469C65.8518 27.0469 67.2073 27.2812 68.4026 27.75C69.6057 28.2109 70.5432 28.8672 71.2151 29.7188C71.8948 30.5625 72.2346 31.5391 72.2346 32.6484C72.2346 33.5547 72.0042 34.3789 71.5432 35.1211C71.0901 35.8555 70.4456 36.4688 69.6096 36.9609V42.375H74.0627V44.5078ZM64.3362 29.1094C63.2815 29.1094 62.3518 29.2539 61.5471 29.543C60.7502 29.8242 60.1292 30.2305 59.6838 30.7617C59.2463 31.293 59.0315 31.9219 59.0393 32.6484C59.0315 33.3672 59.2463 33.9922 59.6838 34.5234C60.1292 35.0547 60.7542 35.4648 61.5588 35.7539C62.3635 36.043 63.2893 36.1875 64.3362 36.1875C65.3831 36.1875 66.3088 36.043 67.1135 35.7539C67.926 35.4648 68.5549 35.0547 69.0002 34.5234C69.4534 33.9922 69.6799 33.3672 69.6799 32.6484C69.6799 31.9297 69.4534 31.3047 69.0002 30.7734C68.5549 30.2344 67.9299 29.8242 67.1252 29.543C66.3206 29.2539 65.3909 29.1094 64.3362 29.1094ZM66.9612 42.375V37.957C66.1331 38.1367 65.2581 38.2266 64.3362 38.2266C63.4534 38.2266 62.594 38.1406 61.7581 37.9688V42.375H66.9612ZM94.3201 44.625H74.9607V42.4688H83.3044V39.0234H77.2576V32.0859H89.4451V29.4609H77.2107V27.3516H92.0232V34.1484H79.8591V36.8906H92.5154V39.0234H85.8826V42.4688H94.3201V44.625ZM114.554 38.4609H106.374V42.3516H103.726V38.4609H95.1946V36.375H114.554V38.4609ZM112.421 46.6641H97.5618V40.3828H100.187V44.5312H112.421V46.6641ZM104.851 26.3672C106.366 26.3672 107.695 26.543 108.835 26.8945C109.984 27.2461 110.87 27.75 111.495 28.4062C112.128 29.0547 112.445 29.8203 112.445 30.7031C112.445 31.5859 112.128 32.3516 111.495 33C110.87 33.6484 109.984 34.1484 108.835 34.5C107.695 34.8438 106.366 35.0156 104.851 35.0156C103.335 35.0156 102.003 34.8438 100.855 34.5C99.7141 34.1484 98.8274 33.6484 98.1946 33C97.5696 32.3516 97.2571 31.5859 97.2571 30.7031C97.2571 29.8203 97.5696 29.0547 98.1946 28.4062C98.8274 27.75 99.7141 27.2461 100.855 26.8945C102.003 26.543 103.335 26.3672 104.851 26.3672ZM104.851 28.4297C103.882 28.4297 103.034 28.5195 102.308 28.6992C101.589 28.8789 101.034 29.1406 100.644 29.4844C100.253 29.8203 100.062 30.2266 100.07 30.7031C100.062 31.1641 100.253 31.5625 100.644 31.8984C101.034 32.2344 101.589 32.4922 102.308 32.6719C103.034 32.8438 103.882 32.9297 104.851 32.9297C105.827 32.9297 106.675 32.8438 107.394 32.6719C108.12 32.4922 108.679 32.2344 109.07 31.8984C109.46 31.5625 109.656 31.1641 109.656 30.7031C109.656 30.2266 109.46 29.8203 109.07 29.4844C108.679 29.1406 108.12 28.8789 107.394 28.6992C106.675 28.5195 105.827 28.4297 104.851 28.4297ZM52.1882 67.2969H49.5867V64.9531H44.5476V62.8438H49.5867V60.5703H44.7468C44.0828 62.25 42.989 63.6797 41.4656 64.8594C39.95 66.0312 38.032 66.9375 35.7117 67.5781L34.657 65.5156C37.0945 64.8516 38.9851 63.918 40.3289 62.7148C41.6726 61.5117 42.45 60.1094 42.6609 58.5078H35.782V56.3984H45.5085C45.5085 57.1562 45.446 57.8594 45.321 58.5078H49.5867V54.9219H52.1882V67.2969ZM45.1804 67.5312C46.6023 67.5312 47.8523 67.7031 48.9304 68.0469C50.0085 68.3906 50.8445 68.8789 51.4382 69.5117C52.032 70.1445 52.3289 70.8906 52.3289 71.75C52.3289 72.6094 52.032 73.3555 51.4382 73.9883C50.8445 74.6211 50.0085 75.1094 48.9304 75.4531C47.8523 75.7969 46.6023 75.9688 45.1804 75.9688C43.7429 75.9688 42.4812 75.7969 41.3953 75.4531C40.3093 75.1094 39.4695 74.6211 38.8757 73.9883C38.282 73.3555 37.9851 72.6094 37.9851 71.75C37.9851 70.8906 38.282 70.1445 38.8757 69.5117C39.4695 68.8789 40.3093 68.3906 41.3953 68.0469C42.4812 67.7031 43.7429 67.5312 45.1804 67.5312ZM45.1804 69.5703C43.7351 69.5703 42.6062 69.7617 41.7937 70.1445C40.989 70.5195 40.5867 71.0547 40.5867 71.75C40.5867 72.4375 40.9929 72.9688 41.8054 73.3438C42.6179 73.7188 43.7429 73.9062 45.1804 73.9062C46.5867 73.9062 47.696 73.7188 48.5085 73.3438C49.321 72.9688 49.7273 72.4375 49.7273 71.75C49.7273 71.0547 49.321 70.5195 48.5085 70.1445C47.7039 69.7617 46.5945 69.5703 45.1804 69.5703ZM72.4456 67.7188H69.844V63.3359H66.8206V61.1797H69.844V54.8984H72.4456V67.7188ZM72.4456 75.8281H58.3596V68.6797H72.4456V75.8281ZM60.9612 73.7188H69.8909V70.7422H60.9612V73.7188ZM67.1721 58.9766H54.7502V56.8672H59.6721V54.7344H62.2502V56.8672H67.1721V58.9766ZM60.9612 59.7969C61.9299 59.7969 62.7932 59.9609 63.551 60.2891C64.3167 60.6094 64.9143 61.0586 65.344 61.6367C65.7737 62.207 65.9924 62.8594 66.0002 63.5938C65.9924 64.3516 65.7737 65.0195 65.344 65.5977C64.9221 66.168 64.3284 66.6094 63.5627 66.9219C62.8049 67.2344 61.9377 67.3906 60.9612 67.3906C59.9924 67.3906 59.1252 67.2344 58.3596 66.9219C57.6018 66.6094 57.0081 66.1641 56.5784 65.5859C56.1565 65.0078 55.9456 64.3438 55.9456 63.5938C55.9456 62.8594 56.1604 62.207 56.5901 61.6367C57.0198 61.0586 57.6135 60.6094 58.3713 60.2891C59.1292 59.9609 59.9924 59.7969 60.9612 59.7969ZM60.9612 61.7656C60.1956 61.7656 59.5823 61.9297 59.1213 62.2578C58.6604 62.5859 58.4299 63.0312 58.4299 63.5938C58.4299 64.1719 58.6565 64.625 59.1096 64.9531C59.5706 65.2812 60.1877 65.4453 60.9612 65.4453C61.7346 65.4453 62.3479 65.2812 62.801 64.9531C63.262 64.625 63.4924 64.1719 63.4924 63.5938C63.4924 63.0312 63.262 62.5859 62.801 62.2578C62.3401 61.9297 61.7268 61.7656 60.9612 61.7656ZM94.3201 73.4609H74.9607V71.3516H83.2576V66.4531H85.8357V71.3516H94.3201V73.4609ZM85.906 57.7344C85.906 58.7969 86.2341 59.8281 86.8904 60.8281C87.5544 61.8281 88.4685 62.6875 89.6326 63.4062C90.8044 64.1172 92.1169 64.5859 93.5701 64.8125L92.4451 66.9688C90.656 66.6328 89.0623 65.9805 87.6638 65.0117C86.2732 64.0352 85.2263 62.8555 84.5232 61.4727C84.0544 62.3867 83.4294 63.2227 82.6482 63.9805C81.8669 64.7305 80.9646 65.3633 79.9412 65.8789C78.9177 66.3867 77.8201 66.75 76.6482 66.9688L75.5232 64.8125C76.9607 64.5859 78.2576 64.1172 79.4138 63.4062C80.5779 62.6875 81.488 61.8281 82.1443 60.8281C82.8005 59.8203 83.1326 58.7891 83.1404 57.7344V56.1875H85.906V57.7344ZM112.843 76.1094H110.218V54.8984H112.843V76.1094ZM98.9446 61.9297H104.077V56.6328H106.656V71.1172H96.343V56.6328H98.9446V61.9297ZM104.077 68.9844V63.9688H98.9446V68.9844H104.077Z" fill="#B5B5B5"/>
<rect x="171.5" y="12" width="150" height="150" fill="#FFFAFA"/>
<rect x="171.5" y="12" width="150" height="150" stroke="#F3633F"/>
<path d="M248.759 38.0156H240.368V40.0547H246.415V46.8281H231.719V40.0547H237.79V38.0156H229.446V35.9297H248.759V38.0156ZM246.977 28.6172H244.071V32.25H246.86V34.3594H231.298V32.25H234.087V28.6172H231.18V26.5312H246.977V28.6172ZM234.298 44.7188H243.884V42.0703H234.298V44.7188ZM241.446 32.25V28.6172H236.688V32.25H241.446ZM260.977 27.2578C260.977 28 260.91 28.7344 260.778 29.4609H264.844V25.9219H267.446V38.5078H264.844V36.0469H259.758V33.9375H264.844V31.5469H260.133C259.422 33.1875 258.289 34.5859 256.735 35.7422C255.18 36.8984 253.258 37.7812 250.969 38.3906L249.985 36.3047C251.602 35.8828 252.996 35.3281 254.168 34.6406C255.34 33.9531 256.262 33.168 256.934 32.2852C257.614 31.3945 258.028 30.4297 258.176 29.3906H251.133V27.2578H260.977ZM267.446 47.0156H264.844V41.4609H253.008V39.3984H267.446V47.0156ZM277.484 39.6797C277.484 40.6094 277.703 41.5 278.14 42.3516C278.586 43.1953 279.242 43.8945 280.109 44.4492C280.984 43.8555 281.652 43.1289 282.113 42.2695C282.574 41.4023 282.812 40.5391 282.828 39.6797V38.8125H285.383V39.6797C285.375 40.4375 285.519 41.1562 285.816 41.8359C286.113 42.5156 286.566 43.1172 287.176 43.6406C287.793 44.1641 288.554 44.5703 289.461 44.8594L288.195 46.7578C287.187 46.4219 286.336 45.9336 285.64 45.293C284.945 44.6523 284.406 43.8984 284.023 43.0312C283.664 43.9062 283.16 44.6836 282.511 45.3633C281.871 46.0508 281.094 46.5781 280.179 46.9453C279.211 46.5938 278.398 46.0859 277.742 45.4219C277.086 44.7578 276.582 43.9844 276.23 43.1016C275.847 43.9375 275.312 44.668 274.625 45.293C273.945 45.9258 273.125 46.4141 272.164 46.7578L270.875 44.8594C271.758 44.5469 272.504 44.1211 273.113 43.582C273.722 43.0352 274.179 42.4258 274.484 41.7539C274.789 41.082 274.945 40.3906 274.953 39.6797V38.8125H277.484V39.6797ZM287.609 37.9219H284.984V25.9219H287.609V37.9219ZM276.054 27.0469C277.133 27.0469 278.105 27.2617 278.972 27.6914C279.84 28.1133 280.519 28.707 281.011 29.4727C281.504 30.2383 281.75 31.1094 281.75 32.0859C281.75 33.0547 281.504 33.9219 281.011 34.6875C280.519 35.4453 279.84 36.0391 278.972 36.4688C278.105 36.8906 277.133 37.1016 276.054 37.1016C274.969 37.1016 273.992 36.8906 273.125 36.4688C272.258 36.0391 271.574 35.4453 271.074 34.6875C270.582 33.9219 270.336 33.0547 270.336 32.0859C270.336 31.1094 270.582 30.2383 271.074 29.4727C271.574 28.707 272.258 28.1133 273.125 27.6914C273.992 27.2617 274.969 27.0469 276.054 27.0469ZM276.054 29.25C275.437 29.25 274.886 29.3672 274.402 29.6016C273.926 29.8359 273.551 30.168 273.277 30.5977C273.011 31.0195 272.883 31.5156 272.89 32.0859C272.883 32.6562 273.011 33.1562 273.277 33.5859C273.551 34.0156 273.926 34.3516 274.402 34.5938C274.886 34.8281 275.437 34.9453 276.054 34.9453C276.664 34.9453 277.203 34.8281 277.672 34.5938C278.148 34.3594 278.519 34.0273 278.785 33.5977C279.058 33.1602 279.195 32.6562 279.195 32.0859C279.195 31.5156 279.062 31.0195 278.797 30.5977C278.531 30.168 278.16 29.8359 277.683 29.6016C277.207 29.3672 276.664 29.25 276.054 29.25ZM307.374 33.9609H292.702V26.6719H295.281V31.8984H307.374V33.9609ZM309.554 38.4844H290.195V36.4219H309.554V38.4844ZM307.515 46.5938H292.515V40.3594H295.116V44.4844H307.515V46.5938ZM235.235 56.4453C236.188 56.4453 237.048 56.6992 237.813 57.207C238.587 57.7148 239.212 58.4375 239.688 59.375H244.634V54.8984H247.212V76.1094H244.634V68.0938H239.876C239.415 69.1484 238.782 69.9688 237.977 70.5547C237.173 71.1328 236.259 71.4219 235.235 71.4219C234.173 71.4219 233.231 71.1172 232.411 70.5078C231.591 69.8984 230.95 69.0273 230.489 67.8945C230.028 66.7617 229.798 65.4375 229.798 63.9219C229.798 62.4219 230.028 61.1094 230.489 59.9844C230.95 58.8516 231.591 57.9805 232.411 57.3711C233.239 56.7539 234.18 56.4453 235.235 56.4453ZM235.235 58.7891C234.649 58.7891 234.134 58.9961 233.688 59.4102C233.243 59.8164 232.899 60.4062 232.657 61.1797C232.415 61.9453 232.298 62.8594 232.305 63.9219C232.298 64.9922 232.415 65.9141 232.657 66.6875C232.899 67.4609 233.243 68.0547 233.688 68.4688C234.134 68.875 234.649 69.0781 235.235 69.0781C235.821 69.0781 236.333 68.875 236.77 68.4688C237.216 68.0547 237.559 67.4609 237.802 66.6875C238.052 65.9141 238.18 64.9922 238.188 63.9219C238.18 62.8594 238.052 61.9414 237.802 61.168C237.559 60.3945 237.216 59.8047 236.77 59.3984C236.333 58.9922 235.821 58.7891 235.235 58.7891ZM240.415 61.5078C240.571 62.2656 240.649 63.0703 240.649 63.9219C240.649 64.625 240.594 65.3125 240.485 65.9844H244.634V61.5078H240.415ZM269.039 68.8906H264.328V76.0859H261.68V68.8906H256.992V76.0859H254.321V68.8906H249.68V66.7812H269.039V68.8906ZM259.313 55.6484C260.805 55.6562 262.129 55.8555 263.285 56.2461C264.442 56.6367 265.34 57.1875 265.981 57.8984C266.629 58.6094 266.953 59.4375 266.953 60.3828C266.953 61.3125 266.629 62.1289 265.981 62.832C265.34 63.5352 264.442 64.0781 263.285 64.4609C262.129 64.8359 260.805 65.0234 259.313 65.0234C257.813 65.0234 256.485 64.8359 255.328 64.4609C254.18 64.0781 253.289 63.5352 252.656 62.832C252.024 62.1289 251.711 61.3125 251.719 60.3828C251.711 59.4375 252.024 58.6094 252.656 57.8984C253.289 57.1875 254.18 56.6367 255.328 56.2461C256.485 55.8555 257.813 55.6562 259.313 55.6484ZM259.313 57.7578C258.313 57.7578 257.442 57.8633 256.699 58.0742C255.957 58.2773 255.383 58.5781 254.977 58.9766C254.578 59.3672 254.383 59.8359 254.391 60.3828C254.383 60.9141 254.578 61.375 254.977 61.7656C255.383 62.1484 255.957 62.4453 256.699 62.6562C257.442 62.8594 258.313 62.9609 259.313 62.9609C260.313 62.9609 261.184 62.8594 261.926 62.6562C262.668 62.4453 263.242 62.1484 263.649 61.7656C264.055 61.375 264.258 60.9141 264.258 60.3828C264.258 59.8359 264.055 59.3672 263.649 58.9766C263.242 58.5781 262.668 58.2773 261.926 58.0742C261.184 57.8633 260.313 57.7578 259.313 57.7578ZM289.32 73.4609H269.961V71.3516H278.258V66.4531H280.836V71.3516H289.32V73.4609ZM280.906 57.7344C280.906 58.7969 281.234 59.8281 281.89 60.8281C282.554 61.8281 283.469 62.6875 284.633 63.4062C285.804 64.1172 287.117 64.5859 288.57 64.8125L287.445 66.9688C285.656 66.6328 284.062 65.9805 282.664 65.0117C281.273 64.0352 280.226 62.8555 279.523 61.4727C279.054 62.3867 278.429 63.2227 277.648 63.9805C276.867 64.7305 275.965 65.3633 274.941 65.8789C273.918 66.3867 272.82 66.75 271.648 66.9688L270.523 64.8125C271.961 64.5859 273.258 64.1172 274.414 63.4062C275.578 62.6875 276.488 61.8281 277.144 60.8281C277.801 59.8203 278.133 58.7891 278.14 57.7344V56.1875H280.906V57.7344ZM307.843 76.1094H305.218V54.8984H307.843V76.1094ZM293.945 61.9297H299.077V56.6328H301.656V71.1172H291.343V56.6328H293.945V61.9297ZM299.077 68.9844V63.9688H293.945V68.9844H299.077Z" fill="#B5B5B5"/>
<path d="M21.5 162H171.5V312H21.5V162Z" fill="#FFD4CA"/>
<path d="M21.5 162H171.5V312H21.5V162Z" stroke="#F3633F"/>
<path d="M42.4382 255.922C42.4382 257.086 42.657 258.238 43.0945 259.379C43.5398 260.512 44.1726 261.531 44.9929 262.438C45.821 263.336 46.7898 264.016 47.8992 264.477L46.4695 266.539C45.2429 266.016 44.1765 265.23 43.2703 264.184C42.364 263.137 41.6609 261.922 41.1609 260.539C40.6609 262.023 39.9539 263.34 39.0398 264.488C38.1335 265.629 37.071 266.484 35.8523 267.055L34.3523 265.016C35.4382 264.516 36.3914 263.781 37.2117 262.812C38.0398 261.844 38.6765 260.758 39.1218 259.555C39.5671 258.344 39.7898 257.133 39.7898 255.922V254.141H35.1257V251.984H47.0789V254.141H42.4382V255.922ZM52.071 271.086H49.446V249.898H52.071V271.086ZM72.9846 271.086H70.4768V249.898H72.9846V271.086ZM68.8596 270.102H66.4456V263.844H63.8088C63.4417 264.672 62.8987 265.324 62.1799 265.801C61.469 266.277 60.6565 266.516 59.7424 266.516C58.8831 266.516 58.1096 266.305 57.4221 265.883C56.7346 265.453 56.1956 264.859 55.8049 264.102C55.4221 263.336 55.2346 262.469 55.2424 261.5C55.2346 260.523 55.4221 259.656 55.8049 258.898C56.1956 258.133 56.7346 257.539 57.4221 257.117C58.1096 256.688 58.8831 256.469 59.7424 256.461C60.6096 256.469 61.387 256.688 62.0745 257.117C62.762 257.539 63.2971 258.133 63.6799 258.898C64.0706 259.656 64.2659 260.523 64.2659 261.5V261.758H66.4456V258.992H63.8909V256.859H66.4456V250.297H68.8596V270.102ZM64.8987 255.359H54.6565V253.273H58.5002V250.438H61.1018V253.273H64.8987V255.359ZM59.7424 258.688C59.0706 258.688 58.5315 258.941 58.1252 259.449C57.719 259.949 57.5159 260.633 57.5159 261.5C57.5159 262.062 57.6057 262.559 57.7854 262.988C57.9729 263.41 58.2346 263.738 58.5706 263.973C58.9065 264.199 59.2971 264.312 59.7424 264.312C60.1877 264.312 60.5784 264.199 60.9143 263.973C61.2581 263.738 61.5237 263.41 61.7112 262.988C61.9065 262.559 62.0081 262.062 62.0159 261.5C62.0081 260.633 61.7932 259.949 61.3713 259.449C60.9573 258.941 60.4143 258.688 59.7424 258.688ZM94.3201 268.625H74.9607V266.469H83.3044V263.023H77.2576V256.086H89.4451V253.461H77.2107V251.352H92.0232V258.148H79.8591V260.891H92.5154V263.023H85.8826V266.469H94.3201V268.625ZM114.554 262.461H106.374V266.352H103.726V262.461H95.1946V260.375H114.554V262.461ZM112.421 270.664H97.5618V264.383H100.187V268.531H112.421V270.664ZM104.851 250.367C106.366 250.367 107.695 250.543 108.835 250.895C109.984 251.246 110.87 251.75 111.495 252.406C112.128 253.055 112.445 253.82 112.445 254.703C112.445 255.586 112.128 256.352 111.495 257C110.87 257.648 109.984 258.148 108.835 258.5C107.695 258.844 106.366 259.016 104.851 259.016C103.335 259.016 102.003 258.844 100.855 258.5C99.7141 258.148 98.8274 257.648 98.1946 257C97.5696 256.352 97.2571 255.586 97.2571 254.703C97.2571 253.82 97.5696 253.055 98.1946 252.406C98.8274 251.75 99.7141 251.246 100.855 250.895C102.003 250.543 103.335 250.367 104.851 250.367ZM104.851 252.43C103.882 252.43 103.034 252.52 102.308 252.699C101.589 252.879 101.034 253.141 100.644 253.484C100.253 253.82 100.062 254.227 100.07 254.703C100.062 255.164 100.253 255.562 100.644 255.898C101.034 256.234 101.589 256.492 102.308 256.672C103.034 256.844 103.882 256.93 104.851 256.93C105.827 256.93 106.675 256.844 107.394 256.672C108.12 256.492 108.679 256.234 109.07 255.898C109.46 255.562 109.656 255.164 109.656 254.703C109.656 254.227 109.46 253.82 109.07 253.484C108.679 253.141 108.12 252.879 107.394 252.699C106.675 252.52 105.827 252.43 104.851 252.43ZM51.0398 287.172H54.1804V289.352H51.0398V300.039H48.4382V278.898H51.0398V287.172ZM45.4382 281.102C45.4382 288.055 42.2273 293.109 35.8054 296.266L34.3289 294.25C36.907 292.969 38.8953 291.418 40.2937 289.598C41.7 287.777 42.5359 285.664 42.8015 283.258H35.4773V281.102H45.4382ZM72.3049 300.086H69.7034V278.898H72.3049V300.086ZM62.8362 285.625C62.8362 286.711 63.051 287.789 63.4807 288.859C63.9104 289.93 64.5315 290.895 65.344 291.754C66.1565 292.613 67.1174 293.273 68.2268 293.734L66.7971 295.727C65.6018 295.227 64.5549 294.48 63.6565 293.488C62.7659 292.496 62.0706 291.348 61.5706 290.043C61.0862 291.426 60.3909 292.648 59.4846 293.711C58.5862 294.766 57.5315 295.555 56.3206 296.078L54.9143 294.062C56.0081 293.578 56.9573 292.891 57.762 292C58.5667 291.102 59.1799 290.098 59.6018 288.988C60.0237 287.879 60.2346 286.758 60.2346 285.625V284.523H55.5706V282.438H60.2346V279.344H62.8127V282.438H67.3831V284.523H62.8362V285.625ZM94.3201 297.461H74.9607V295.352H83.2576V290.453H85.8357V295.352H94.3201V297.461ZM85.906 281.734C85.906 282.797 86.2341 283.828 86.8904 284.828C87.5544 285.828 88.4685 286.688 89.6326 287.406C90.8044 288.117 92.1169 288.586 93.5701 288.812L92.4451 290.969C90.656 290.633 89.0623 289.98 87.6638 289.012C86.2732 288.035 85.2263 286.855 84.5232 285.473C84.0544 286.387 83.4294 287.223 82.6482 287.98C81.8669 288.73 80.9646 289.363 79.9412 289.879C78.9177 290.387 77.8201 290.75 76.6482 290.969L75.5232 288.812C76.9607 288.586 78.2576 288.117 79.4138 287.406C80.5779 286.688 81.488 285.828 82.1443 284.828C82.8005 283.82 83.1326 282.789 83.1404 281.734V280.188H85.906V281.734ZM112.843 300.109H110.218V278.898H112.843V300.109ZM98.9446 285.93H104.077V280.633H106.656V295.117H96.343V280.633H98.9446V285.93ZM104.077 292.984V287.969H98.9446V292.984H104.077Z" fill="#F3633F"/>
<rect width="150" height="150" transform="matrix(-1 0 0 1 321.5 162)" fill="#FFFAFA"/>
<rect width="150" height="150" transform="matrix(-1 0 0 1 321.5 162)" stroke="#F3633F"/>
<path d="M246.157 256.109H249.11V258.266H246.157V265.391H243.555V249.898H246.157V256.109ZM247.001 270.664H232.587V263.773H235.188V268.555H247.001V270.664ZM235.399 251.305C236.462 251.305 237.427 251.535 238.294 251.996C239.161 252.449 239.844 253.082 240.344 253.895C240.852 254.707 241.11 255.625 241.118 256.648C241.11 257.656 240.852 258.566 240.344 259.379C239.844 260.184 239.157 260.816 238.282 261.277C237.415 261.738 236.454 261.969 235.399 261.969C234.337 261.969 233.368 261.738 232.493 261.277C231.618 260.816 230.927 260.184 230.419 259.379C229.919 258.566 229.673 257.656 229.68 256.648C229.673 255.633 229.919 254.719 230.419 253.906C230.927 253.086 231.618 252.449 232.493 251.996C233.368 251.535 234.337 251.305 235.399 251.305ZM235.399 253.578C234.805 253.578 234.266 253.707 233.782 253.965C233.298 254.215 232.915 254.574 232.634 255.043C232.36 255.504 232.227 256.039 232.235 256.648C232.227 257.242 232.36 257.77 232.634 258.23C232.915 258.691 233.298 259.047 233.782 259.297C234.266 259.547 234.805 259.672 235.399 259.672C235.993 259.672 236.528 259.547 237.005 259.297C237.489 259.047 237.868 258.691 238.141 258.23C238.423 257.77 238.563 257.242 238.563 256.648C238.563 256.039 238.423 255.504 238.141 255.043C237.868 254.574 237.489 254.215 237.005 253.965C236.528 253.707 235.993 253.578 235.399 253.578ZM266.555 258.125H260.649V260.352H269.016V262.461H249.703V260.352H258.024V258.125H252.141V250.766H266.555V258.125ZM254.672 256.062H263.977V252.805H254.672V256.062ZM266.649 271.086H264.047V266.305H251.836V264.242H266.649V271.086ZM277.484 263.68C277.484 264.609 277.703 265.5 278.14 266.352C278.586 267.195 279.242 267.895 280.109 268.449C280.984 267.855 281.652 267.129 282.113 266.27C282.574 265.402 282.812 264.539 282.828 263.68V262.812H285.383V263.68C285.375 264.438 285.519 265.156 285.816 265.836C286.113 266.516 286.566 267.117 287.176 267.641C287.793 268.164 288.554 268.57 289.461 268.859L288.195 270.758C287.187 270.422 286.336 269.934 285.64 269.293C284.945 268.652 284.406 267.898 284.023 267.031C283.664 267.906 283.16 268.684 282.511 269.363C281.871 270.051 281.094 270.578 280.179 270.945C279.211 270.594 278.398 270.086 277.742 269.422C277.086 268.758 276.582 267.984 276.23 267.102C275.847 267.938 275.312 268.668 274.625 269.293C273.945 269.926 273.125 270.414 272.164 270.758L270.875 268.859C271.758 268.547 272.504 268.121 273.113 267.582C273.722 267.035 274.179 266.426 274.484 265.754C274.789 265.082 274.945 264.391 274.953 263.68V262.812H277.484V263.68ZM287.609 261.922H284.984V249.922H287.609V261.922ZM276.054 251.047C277.133 251.047 278.105 251.262 278.972 251.691C279.84 252.113 280.519 252.707 281.011 253.473C281.504 254.238 281.75 255.109 281.75 256.086C281.75 257.055 281.504 257.922 281.011 258.688C280.519 259.445 279.84 260.039 278.972 260.469C278.105 260.891 277.133 261.102 276.054 261.102C274.969 261.102 273.992 260.891 273.125 260.469C272.258 260.039 271.574 259.445 271.074 258.688C270.582 257.922 270.336 257.055 270.336 256.086C270.336 255.109 270.582 254.238 271.074 253.473C271.574 252.707 272.258 252.113 273.125 251.691C273.992 251.262 274.969 251.047 276.054 251.047ZM276.054 253.25C275.437 253.25 274.886 253.367 274.402 253.602C273.926 253.836 273.551 254.168 273.277 254.598C273.011 255.02 272.883 255.516 272.89 256.086C272.883 256.656 273.011 257.156 273.277 257.586C273.551 258.016 273.926 258.352 274.402 258.594C274.886 258.828 275.437 258.945 276.054 258.945C276.664 258.945 277.203 258.828 277.672 258.594C278.148 258.359 278.519 258.027 278.785 257.598C279.058 257.16 279.195 256.656 279.195 256.086C279.195 255.516 279.062 255.02 278.797 254.598C278.531 254.168 278.16 253.836 277.683 253.602C277.207 253.367 276.664 253.25 276.054 253.25ZM307.374 257.961H292.702V250.672H295.281V255.898H307.374V257.961ZM309.554 262.484H290.195V260.422H309.554V262.484ZM307.515 270.594H292.515V264.359H295.116V268.484H307.515V270.594ZM237.157 282.016C237.149 282.789 237.337 283.547 237.719 284.289C238.102 285.023 238.665 285.684 239.407 286.27C240.157 286.848 241.055 287.289 242.102 287.594L240.884 289.656C239.712 289.312 238.7 288.793 237.848 288.098C236.997 287.395 236.329 286.566 235.844 285.613C235.352 286.668 234.661 287.59 233.77 288.379C232.887 289.168 231.844 289.75 230.641 290.125L229.352 288.086C230.423 287.734 231.348 287.238 232.13 286.598C232.911 285.957 233.505 285.234 233.911 284.43C234.325 283.625 234.532 282.812 234.532 281.992V281.922H230.079V279.812H241.54V281.922H237.157V282.016ZM247.188 289.75H244.587V285.461H240.954V283.375H244.587V278.898H247.188V289.75ZM247.188 296.148H235.844V297.812H247.868V299.852H233.243V294.203H244.587V292.703H233.219V290.641H247.188V296.148ZM267.938 300.086H265.453V278.898H267.938V300.086ZM263.625 299.055H261.164V288.391H258.117V286.281H261.164V279.297H263.625V299.055ZM256.242 284.688C256.242 285.93 256.395 287.121 256.699 288.262C257.012 289.402 257.489 290.438 258.129 291.367C258.778 292.297 259.586 293.039 260.555 293.594L259.008 295.516C258.055 294.945 257.246 294.184 256.582 293.23C255.918 292.27 255.395 291.164 255.012 289.914C254.629 291.266 254.094 292.469 253.406 293.523C252.719 294.57 251.891 295.398 250.922 296.008L249.328 294.062C250.313 293.469 251.133 292.676 251.789 291.684C252.453 290.691 252.942 289.598 253.254 288.402C253.574 287.199 253.735 285.961 253.735 284.688V283.281H250.055V281.172H259.664V283.281H256.242V284.688ZM289.32 297.461H269.961V295.352H278.258V290.453H280.836V295.352H289.32V297.461ZM280.906 281.734C280.906 282.797 281.234 283.828 281.89 284.828C282.554 285.828 283.469 286.688 284.633 287.406C285.804 288.117 287.117 288.586 288.57 288.812L287.445 290.969C285.656 290.633 284.062 289.98 282.664 289.012C281.273 288.035 280.226 286.855 279.523 285.473C279.054 286.387 278.429 287.223 277.648 287.98C276.867 288.73 275.965 289.363 274.941 289.879C273.918 290.387 272.82 290.75 271.648 290.969L270.523 288.812C271.961 288.586 273.258 288.117 274.414 287.406C275.578 286.688 276.488 285.828 277.144 284.828C277.801 283.82 278.133 282.789 278.14 281.734V280.188H280.906V281.734ZM307.843 300.109H305.218V278.898H307.843V300.109ZM293.945 285.93H299.077V280.633H301.656V295.117H291.343V280.633H293.945V285.93ZM299.077 292.984V287.969H293.945V292.984H299.077Z" fill="#B5B5B5"/>
<path d="M21.1464 0.646454C21.3417 0.451172 21.6583 0.451172 21.8536 0.646454L25.0355 3.82843C25.2308 4.02368 25.2308 4.34027 25.0355 4.53552C24.8403 4.7308 24.5237 4.7308 24.3284 4.53552L21.5 1.70709L18.6716 4.53552C18.4763 4.7308 18.1597 4.7308 17.9645 4.53552C17.7692 4.34027 17.7692 4.02368 17.9645 3.82843L21.1464 0.646454ZM21.5 312H21L21 1H21.5H22L22 312H21.5Z" fill="#F3633F"/>
<path d="M332.854 311.646C333.049 311.842 333.049 312.158 332.854 312.354L329.672 315.536C329.476 315.731 329.16 315.731 328.964 315.536C328.769 315.34 328.769 315.024 328.964 314.828L331.793 312L328.964 309.172C328.769 308.976 328.769 308.66 328.964 308.464C329.16 308.269 329.476 308.269 329.672 308.464L332.854 311.646ZM21.5 312V311.5H332.5V312V312.5H21.5V312Z" fill="#F3633F"/>
<path d="M26.5386 319.84C26.5386 320.318 26.6639 320.783 26.9146 321.234C27.1698 321.686 27.523 322.087 27.9741 322.438C28.4253 322.788 28.9403 323.057 29.519 323.244L28.9858 324.092C28.3022 323.864 27.7007 323.527 27.1812 323.08C26.6662 322.629 26.2765 322.107 26.0122 321.515C25.7388 322.171 25.3309 322.752 24.7886 323.258C24.2463 323.759 23.6219 324.133 22.9155 324.379L22.3823 323.531C22.9702 323.326 23.4966 323.032 23.9614 322.649C24.4308 322.267 24.7977 321.829 25.062 321.337C25.3263 320.845 25.4585 320.341 25.4585 319.826V319.484H22.7105V318.596H29.2593V319.484H26.5386V319.84ZM32.3901 324.242H31.3237V321.562H28.8765V320.674H31.3237V317.953H32.3901V324.242ZM32.3901 327.756H25.6089V329.109H32.855V329.971H24.5425V326.936H31.3237V325.719H24.5151V324.844H32.3901V327.756ZM45.249 320.715H43.4443V322.424H45.249V323.34H43.4443V325.186H42.3779V317.953H43.4443V319.84H45.249V320.715ZM43.4443 330.107H42.3779V326.635H35.4873V325.746H43.4443V330.107ZM37.3604 318.691C37.9665 318.687 38.5111 318.805 38.9941 319.047C39.4818 319.288 39.8623 319.628 40.1357 320.065C40.4137 320.503 40.555 320.997 40.5596 321.549C40.555 322.109 40.4137 322.608 40.1357 323.046C39.8623 323.483 39.484 323.825 39.001 324.071C38.5179 324.313 37.971 324.434 37.3604 324.434C36.7497 324.434 36.2005 324.313 35.7129 324.071C35.2298 323.825 34.8516 323.483 34.5781 323.046C34.3047 322.608 34.1702 322.109 34.1748 321.549C34.1702 320.997 34.3047 320.505 34.5781 320.072C34.8516 319.635 35.2298 319.295 35.7129 319.054C36.2005 318.808 36.7497 318.687 37.3604 318.691ZM37.3604 319.607C36.9548 319.607 36.5879 319.689 36.2598 319.854C35.9362 320.018 35.681 320.248 35.4941 320.544C35.3118 320.836 35.223 321.171 35.2275 321.549C35.223 321.932 35.3118 322.273 35.4941 322.574C35.681 322.87 35.9362 323.101 36.2598 323.265C36.5879 323.429 36.9548 323.508 37.3604 323.504C37.7705 323.508 38.1374 323.429 38.4609 323.265C38.7891 323.101 39.0443 322.87 39.2266 322.574C39.4134 322.273 39.5068 321.932 39.5068 321.549C39.5068 321.171 39.4134 320.836 39.2266 320.544C39.0443 320.248 38.7891 320.018 38.4609 319.854C38.1374 319.689 37.7705 319.607 37.3604 319.607ZM52.4478 320.195H45.5708V319.32H48.5239V317.857H49.5903V319.32H52.4478V320.195ZM49.0435 320.824C49.5812 320.824 50.0597 320.918 50.479 321.104C50.9028 321.291 51.231 321.553 51.4634 321.891C51.7004 322.228 51.8188 322.62 51.8188 323.066C51.8188 323.513 51.7004 323.907 51.4634 324.249C51.231 324.591 50.9028 324.855 50.479 325.042C50.0597 325.229 49.5812 325.322 49.0435 325.322C48.5011 325.322 48.0203 325.229 47.6011 325.042C47.1864 324.855 46.8628 324.593 46.6304 324.256C46.4025 323.914 46.2909 323.518 46.2954 323.066C46.2909 322.62 46.4025 322.228 46.6304 321.891C46.8628 321.549 47.1864 321.287 47.6011 321.104C48.0203 320.918 48.5011 320.824 49.0435 320.824ZM49.0435 321.631C48.6971 321.635 48.3918 321.699 48.1274 321.822C47.8631 321.941 47.658 322.109 47.5122 322.328C47.3664 322.542 47.2935 322.788 47.2935 323.066C47.2935 323.349 47.3664 323.6 47.5122 323.818C47.658 324.033 47.8631 324.199 48.1274 324.317C48.3918 324.431 48.6971 324.488 49.0435 324.488C49.3898 324.488 49.6974 324.431 49.9663 324.317C50.2352 324.199 50.4425 324.033 50.5884 323.818C50.7388 323.6 50.8162 323.349 50.8208 323.066C50.8162 322.788 50.7388 322.542 50.5884 322.328C50.438 322.109 50.2284 321.941 49.9595 321.822C49.6951 321.699 49.3898 321.635 49.0435 321.631ZM55.6333 325.814H54.5532V324.133H52.4341V323.244H54.5532V321.768H52.4478V320.879H54.5532V317.953H55.6333V325.814ZM51.6274 325.938C52.4705 325.938 53.1974 326.02 53.8081 326.184C54.4188 326.343 54.8859 326.58 55.2095 326.895C55.5376 327.204 55.7017 327.578 55.7017 328.016C55.7017 328.444 55.5376 328.813 55.2095 329.123C54.8859 329.433 54.4165 329.67 53.8013 329.834C53.1906 329.998 52.466 330.08 51.6274 330.08C50.7798 330.08 50.0483 329.998 49.4331 329.834C48.8224 329.67 48.353 329.433 48.0249 329.123C47.7013 328.813 47.5395 328.444 47.5395 328.016C47.5395 327.578 47.7013 327.204 48.0249 326.895C48.353 326.58 48.8224 326.343 49.4331 326.184C50.0438 326.02 50.7752 325.938 51.6274 325.938ZM51.6274 326.771C51.0122 326.771 50.4813 326.822 50.0347 326.922C49.5881 327.018 49.244 327.159 49.0024 327.346C48.7655 327.533 48.647 327.756 48.647 328.016C48.647 328.271 48.7655 328.492 49.0024 328.679C49.244 328.861 49.5881 329 50.0347 329.096C50.4858 329.196 51.0168 329.246 51.6274 329.246C52.229 329.246 52.7508 329.196 53.1929 329.096C53.6349 329 53.9744 328.861 54.2114 328.679C54.4484 328.492 54.5669 328.271 54.5669 328.016C54.5669 327.756 54.4484 327.533 54.2114 327.346C53.9744 327.159 53.6349 327.018 53.1929 326.922C52.7554 326.822 52.2336 326.771 51.6274 326.771Z" fill="#B5B5B5"/>
<path d="M158.224 328.604H147.013V327.537H151.921V324.625H153.206V327.537H158.224V328.604ZM153.233 319.621C153.233 320.25 153.441 320.861 153.855 321.453C154.275 322.041 154.828 322.542 155.517 322.957C156.209 323.372 156.948 323.645 157.731 323.777L157.171 324.844C156.506 324.712 155.87 324.493 155.264 324.188C154.662 323.878 154.124 323.497 153.65 323.046C153.181 322.595 152.814 322.093 152.55 321.542C152.285 322.093 151.919 322.597 151.449 323.053C150.984 323.504 150.451 323.884 149.85 324.194C149.253 324.5 148.626 324.716 147.97 324.844L147.396 323.777C148.175 323.645 148.906 323.372 149.59 322.957C150.278 322.542 150.829 322.041 151.244 321.453C151.659 320.861 151.866 320.25 151.866 319.621V318.691H153.233V319.621ZM168.772 330.189H167.473V317.912H168.772V330.189ZM160.61 322.082H163.905V318.938H165.19V327.25H159.311V318.938H160.61V322.082ZM163.905 326.184V323.107H160.61V326.184H163.905ZM177.523 319.744C177.523 320.318 177.641 320.863 177.878 321.378C178.115 321.888 178.457 322.337 178.904 322.725C179.35 323.112 179.879 323.404 180.49 323.6L179.779 324.611C179.113 324.37 178.535 324.023 178.042 323.572C177.555 323.117 177.177 322.579 176.908 321.959C176.639 322.665 176.24 323.281 175.711 323.805C175.187 324.324 174.561 324.716 173.832 324.98L173.134 323.941C173.777 323.723 174.331 323.406 174.795 322.991C175.26 322.576 175.616 322.096 175.862 321.549C176.108 320.997 176.233 320.414 176.238 319.799V318.596H177.523V319.744ZM183.388 325.145H182.089V321.467H179.505V320.4H182.089V317.912H183.388V325.145ZM179.287 325.486C180.143 325.486 180.882 325.577 181.501 325.76C182.121 325.942 182.597 326.209 182.93 326.56C183.263 326.91 183.429 327.332 183.429 327.824C183.429 328.312 183.263 328.729 182.93 329.075C182.597 329.426 182.119 329.69 181.495 329.868C180.875 330.05 180.139 330.139 179.287 330.135C178.43 330.139 177.689 330.05 177.065 329.868C176.445 329.69 175.969 329.426 175.636 329.075C175.304 328.729 175.139 328.312 175.144 327.824C175.139 327.332 175.304 326.91 175.636 326.56C175.969 326.209 176.445 325.942 177.065 325.76C177.689 325.577 178.43 325.486 179.287 325.486ZM179.287 326.498C178.389 326.498 177.687 326.614 177.181 326.847C176.68 327.075 176.429 327.4 176.429 327.824C176.429 328.234 176.68 328.551 177.181 328.774C177.687 328.998 178.389 329.109 179.287 329.109C180.184 329.109 180.884 328.998 181.385 328.774C181.891 328.551 182.144 328.234 182.144 327.824C182.144 327.4 181.891 327.075 181.385 326.847C180.884 326.614 180.184 326.498 179.287 326.498ZM196.151 321.002H194.415V322.547H196.151V323.613H194.415V325.773H193.116V317.912H194.415V319.936H196.151V321.002ZM190.505 325.869C191.334 325.869 192.052 325.956 192.658 326.129C193.269 326.298 193.736 326.544 194.06 326.867C194.388 327.186 194.552 327.569 194.552 328.016C194.552 328.453 194.388 328.831 194.06 329.15C193.736 329.474 193.269 329.72 192.658 329.889C192.052 330.057 191.334 330.139 190.505 330.135C189.666 330.139 188.942 330.057 188.331 329.889C187.72 329.72 187.251 329.474 186.923 329.15C186.599 328.831 186.44 328.453 186.444 328.016C186.44 327.569 186.599 327.186 186.923 326.867C187.246 326.544 187.714 326.298 188.324 326.129C188.939 325.956 189.666 325.869 190.505 325.869ZM190.505 326.867C189.616 326.867 188.93 326.965 188.447 327.161C187.964 327.357 187.725 327.642 187.729 328.016C187.72 328.371 187.96 328.649 188.447 328.85C188.939 329.05 189.625 329.15 190.505 329.15C191.371 329.15 192.048 329.05 192.535 328.85C193.023 328.649 193.267 328.371 193.267 328.016C193.267 327.642 193.025 327.357 192.542 327.161C192.059 326.965 191.38 326.867 190.505 326.867ZM192.104 320.25H184.804V319.225H187.812V317.816H189.11V319.225H192.104V320.25ZM188.454 320.811C189.037 320.811 189.552 320.902 189.999 321.084C190.45 321.266 190.799 321.524 191.045 321.856C191.296 322.185 191.421 322.565 191.421 322.998C191.421 323.431 191.296 323.812 191.045 324.14C190.799 324.468 190.45 324.721 189.999 324.898C189.552 325.076 189.037 325.163 188.454 325.158C187.862 325.163 187.34 325.076 186.889 324.898C186.442 324.721 186.093 324.468 185.843 324.14C185.597 323.812 185.474 323.431 185.474 322.998C185.474 322.565 185.597 322.185 185.843 321.856C186.093 321.524 186.442 321.266 186.889 321.084C187.34 320.902 187.862 320.811 188.454 320.811ZM188.454 321.781C188.108 321.781 187.802 321.831 187.538 321.932C187.278 322.027 187.078 322.169 186.937 322.355C186.795 322.538 186.727 322.752 186.731 322.998C186.727 323.235 186.795 323.442 186.937 323.62C187.078 323.798 187.278 323.935 187.538 324.03C187.802 324.126 188.108 324.174 188.454 324.174C188.978 324.174 189.4 324.069 189.719 323.859C190.038 323.645 190.2 323.358 190.204 322.998C190.2 322.624 190.038 322.328 189.719 322.109C189.4 321.891 188.978 321.781 188.454 321.781Z" fill="#B5B5B5"/>
<path d="M289.595 318.896C290.151 318.901 290.648 319.058 291.085 319.368C291.523 319.674 291.874 320.109 292.138 320.674H295.337V317.953H296.404V330.135H295.337V325.418H292.213C291.958 326.038 291.603 326.516 291.147 326.854C290.696 327.191 290.179 327.359 289.595 327.359C289.003 327.359 288.474 327.186 288.009 326.84C287.549 326.493 287.189 326.001 286.929 325.363C286.674 324.725 286.546 323.982 286.546 323.135C286.546 322.287 286.674 321.544 286.929 320.906C287.189 320.268 287.549 319.776 288.009 319.43C288.47 319.079 288.998 318.901 289.595 318.896ZM289.595 319.854C289.199 319.858 288.846 319.997 288.536 320.271C288.23 320.539 287.993 320.922 287.825 321.419C287.656 321.911 287.572 322.483 287.572 323.135C287.572 323.786 287.656 324.361 287.825 324.857C287.993 325.35 288.23 325.73 288.536 325.999C288.846 326.268 289.199 326.402 289.595 326.402C289.987 326.402 290.336 326.268 290.641 325.999C290.951 325.73 291.19 325.35 291.359 324.857C291.532 324.361 291.619 323.786 291.619 323.135C291.619 322.483 291.532 321.911 291.359 321.419C291.19 320.922 290.953 320.539 290.648 320.271C290.343 319.997 289.992 319.858 289.595 319.854ZM292.453 321.576C292.571 322.087 292.63 322.606 292.63 323.135C292.63 323.609 292.583 324.074 292.487 324.529H295.337V321.576H292.453ZM309.058 325.773H306.118V330.107H305.038V325.773H301.921V330.107H300.813V325.773H297.929V324.885H309.058V325.773ZM303.466 318.445C304.313 318.445 305.061 318.555 305.708 318.773C306.355 318.988 306.856 319.295 307.212 319.696C307.567 320.097 307.745 320.564 307.745 321.098C307.745 321.631 307.565 322.096 307.205 322.492C306.85 322.889 306.348 323.194 305.701 323.408C305.059 323.622 304.313 323.727 303.466 323.723C302.618 323.727 301.871 323.622 301.224 323.408C300.581 323.194 300.08 322.889 299.72 322.492C299.364 322.096 299.187 321.631 299.187 321.098C299.187 320.564 299.364 320.097 299.72 319.696C300.075 319.295 300.576 318.988 301.224 318.773C301.871 318.555 302.618 318.445 303.466 318.445ZM303.466 319.32C302.837 319.32 302.281 319.393 301.798 319.539C301.319 319.685 300.948 319.892 300.684 320.161C300.419 320.43 300.289 320.742 300.294 321.098C300.289 321.453 300.419 321.765 300.684 322.034C300.948 322.299 301.319 322.504 301.798 322.649C302.281 322.791 302.837 322.861 303.466 322.861C304.09 322.861 304.644 322.791 305.127 322.649C305.61 322.504 305.984 322.299 306.248 322.034C306.517 321.765 306.651 321.453 306.651 321.098C306.651 320.742 306.517 320.43 306.248 320.161C305.984 319.892 305.61 319.685 305.127 319.539C304.644 319.393 304.09 319.32 303.466 319.32ZM316.448 320.195H309.571V319.32H312.524V317.857H313.59V319.32H316.448V320.195ZM313.043 320.824C313.581 320.824 314.06 320.918 314.479 321.104C314.903 321.291 315.231 321.553 315.463 321.891C315.7 322.228 315.819 322.62 315.819 323.066C315.819 323.513 315.7 323.907 315.463 324.249C315.231 324.591 314.903 324.855 314.479 325.042C314.06 325.229 313.581 325.322 313.043 325.322C312.501 325.322 312.02 325.229 311.601 325.042C311.186 324.855 310.863 324.593 310.63 324.256C310.403 323.914 310.291 323.518 310.295 323.066C310.291 322.62 310.403 322.228 310.63 321.891C310.863 321.549 311.186 321.287 311.601 321.104C312.02 320.918 312.501 320.824 313.043 320.824ZM313.043 321.631C312.697 321.635 312.392 321.699 312.127 321.822C311.863 321.941 311.658 322.109 311.512 322.328C311.366 322.542 311.293 322.788 311.293 323.066C311.293 323.349 311.366 323.6 311.512 323.818C311.658 324.033 311.863 324.199 312.127 324.317C312.392 324.431 312.697 324.488 313.043 324.488C313.39 324.488 313.697 324.431 313.966 324.317C314.235 324.199 314.443 324.033 314.588 323.818C314.739 323.6 314.816 323.349 314.821 323.066C314.816 322.788 314.739 322.542 314.588 322.328C314.438 322.109 314.228 321.941 313.959 321.822C313.695 321.699 313.39 321.635 313.043 321.631ZM319.633 325.814H318.553V324.133H316.434V323.244H318.553V321.768H316.448V320.879H318.553V317.953H319.633V325.814ZM315.627 325.938C316.471 325.938 317.197 326.02 317.808 326.184C318.419 326.343 318.886 326.58 319.209 326.895C319.538 327.204 319.702 327.578 319.702 328.016C319.702 328.444 319.538 328.813 319.209 329.123C318.886 329.433 318.417 329.67 317.801 329.834C317.191 329.998 316.466 330.08 315.627 330.08C314.78 330.08 314.048 329.998 313.433 329.834C312.822 329.67 312.353 329.433 312.025 329.123C311.701 328.813 311.54 328.444 311.54 328.016C311.54 327.578 311.701 327.204 312.025 326.895C312.353 326.58 312.822 326.343 313.433 326.184C314.044 326.02 314.775 325.938 315.627 325.938ZM315.627 326.771C315.012 326.771 314.481 326.822 314.035 326.922C313.588 327.018 313.244 327.159 313.002 327.346C312.765 327.533 312.647 327.756 312.647 328.016C312.647 328.271 312.765 328.492 313.002 328.679C313.244 328.861 313.588 329 314.035 329.096C314.486 329.196 315.017 329.246 315.627 329.246C316.229 329.246 316.751 329.196 317.193 329.096C317.635 329 317.974 328.861 318.211 328.679C318.448 328.492 318.567 328.271 318.567 328.016C318.567 327.756 318.448 327.533 318.211 327.346C317.974 327.159 317.635 327.018 317.193 326.922C316.755 326.822 316.234 326.771 315.627 326.771Z" fill="#B5B5B5"/>
<path d="M6.45898 25.6641V29.4375H8.00391V24.4336H8.89258V35.5078H8.00391V30.5039H6.45898V33.9902H2.72656V32.9238H5.59766V25.6641H6.45898ZM10.9707 25.6504V27.5371H13.5684V25.5547H14.4434V34.373H13.5684V32.3906H10.9707V34.2637H10.1094V25.6504H10.9707ZM13.5684 28.5898H10.9707V31.3242H13.5684V28.5898ZM2.72656 18.356C2.72656 17.4764 2.81771 16.7153 3 16.0728C3.18229 15.4256 3.44661 14.9289 3.79297 14.5825C4.13932 14.2362 4.55404 14.063 5.03711 14.063C5.51107 14.063 5.91895 14.2362 6.26074 14.5825C6.59798 14.9289 6.85775 15.4256 7.04004 16.0728C7.21777 16.7153 7.30664 17.4764 7.30664 18.356C7.30664 19.2355 7.21777 19.9989 7.04004 20.646C6.85775 21.2931 6.59798 21.7922 6.26074 22.1431C5.91895 22.4894 5.51107 22.6626 5.03711 22.6626C4.55404 22.6626 4.13932 22.4894 3.79297 22.1431C3.44661 21.7922 3.18229 21.2931 3 20.646C2.81771 19.9989 2.72656 19.2355 2.72656 18.356ZM3.58789 18.356C3.58789 19.0077 3.64714 19.575 3.76562 20.0581C3.87956 20.5412 4.0459 20.9126 4.26465 21.1724C4.4834 21.4321 4.74089 21.5597 5.03711 21.5552C5.32878 21.5597 5.58171 21.4344 5.7959 21.1792C6.00553 20.9194 6.16732 20.548 6.28125 20.0649C6.39518 19.5819 6.45443 19.0122 6.45898 18.356C6.45443 17.7088 6.39518 17.146 6.28125 16.6675C6.16732 16.1844 6.00553 15.813 5.7959 15.5532C5.58171 15.2889 5.32878 15.1567 5.03711 15.1567C4.74089 15.1567 4.4834 15.2889 4.26465 15.5532C4.0459 15.813 3.87956 16.1844 3.76562 16.6675C3.64714 17.1506 3.58789 17.7134 3.58789 18.356ZM14.4434 14.1724V22.5396H10.4512V14.1724H14.4434ZM13.5684 21.4731V15.2251H11.3125V21.4731H13.5684ZM9.24805 12.8188V23.8931H8.35938V12.8188H9.24805Z" fill="#B5B5B5"/>
<path d="M8.29102 167.77V169.67H14.6484V170.969H2.41211V169.67H7.22461V167.77H8.29102ZM10.4922 177.463C10.4922 175.595 10.3099 173.781 9.94531 172.022L11.0391 171.872C11.235 172.847 11.374 173.815 11.4561 174.777C11.5335 175.734 11.5723 176.721 11.5723 177.737V178.749H3.60156V177.463H10.4922ZM14.6895 157.454V158.753H2.41211V157.454H14.6895ZM3.32812 164.003C3.32812 163.397 3.50586 162.854 3.86133 162.376C4.21224 161.897 4.71354 161.524 5.36523 161.255C6.01237 160.981 6.76432 160.845 7.62109 160.845C8.48242 160.845 9.23893 160.981 9.89062 161.255C10.5423 161.524 11.0459 161.897 11.4014 162.376C11.7523 162.854 11.9277 163.397 11.9277 164.003C11.9277 164.618 11.7523 165.165 11.4014 165.644C11.0459 166.122 10.5446 166.498 9.89746 166.771C9.24577 167.04 8.48698 167.175 7.62109 167.175C6.75977 167.175 6.00553 167.04 5.3584 166.771C4.70671 166.498 4.2054 166.122 3.85449 165.644C3.50358 165.165 3.32812 164.618 3.32812 164.003ZM4.49023 164.003C4.49023 164.381 4.61784 164.716 4.87305 165.008C5.12826 165.295 5.49284 165.518 5.9668 165.678C6.4362 165.837 6.98763 165.917 7.62109 165.917C8.25911 165.917 8.8151 165.837 9.28906 165.678C9.76302 165.518 10.1276 165.295 10.3828 165.008C10.638 164.716 10.7656 164.381 10.7656 164.003C10.7656 163.629 10.638 163.299 10.3828 163.012C10.1276 162.725 9.76302 162.501 9.28906 162.342C8.8151 162.182 8.25911 162.103 7.62109 162.103C6.98763 162.103 6.4362 162.182 5.9668 162.342C5.49284 162.501 5.12826 162.725 4.87305 163.012C4.61784 163.299 4.49023 163.629 4.49023 164.003ZM14.6621 145.47V146.714H8.33203V148.3H14.0332V149.49H2.6582V148.3H7.26562V146.714H2.41211V145.47H14.6621ZM4.94141 150.98V154.275H10.6152C10.6061 153.473 10.5788 152.771 10.5332 152.169C10.4876 151.563 10.4056 150.948 10.2871 150.324L11.3535 150.228C11.4948 150.916 11.5905 151.595 11.6406 152.265C11.6862 152.935 11.7135 153.764 11.7227 154.753V155.574H3.88867V150.98H4.94141Z" fill="#B5B5B5"/>
<path d="M5.43359 302.006V300.174H6.34961V302.006H9.34375V303.072H2.43945V302.006H5.43359ZM7.4707 309.84C7.46615 308.901 7.42513 307.985 7.34766 307.092C7.26562 306.199 7.12891 305.287 6.9375 304.357L7.83984 304.221C8.03581 305.21 8.17708 306.169 8.26367 307.099C8.3457 308.028 8.38672 308.979 8.38672 309.949V310.92H3.12305V309.84H7.4707ZM10.8477 301.787V305.232C11.2806 305.219 11.6976 305.03 12.0986 304.665C12.4997 304.3 12.8438 303.822 13.1309 303.229C13.418 302.632 13.6185 301.997 13.7324 301.322L14.5664 301.746C14.4023 302.648 14.1016 303.464 13.6641 304.193C13.2266 304.923 12.7048 305.456 12.0986 305.793C12.7093 306.121 13.2288 306.65 13.6572 307.379C14.0856 308.108 14.3796 308.928 14.5391 309.84L13.7188 310.264C13.6094 309.585 13.4134 308.949 13.1309 308.356C12.8483 307.764 12.5088 307.288 12.1123 306.928C11.7113 306.563 11.2897 306.372 10.8477 306.354V309.799H9.95898V301.787H10.8477ZM2.72656 294.356C2.72656 293.476 2.81771 292.715 3 292.073C3.18229 291.426 3.44661 290.929 3.79297 290.583C4.13932 290.236 4.55404 290.063 5.03711 290.063C5.51107 290.063 5.91895 290.236 6.26074 290.583C6.59798 290.929 6.85775 291.426 7.04004 292.073C7.21777 292.715 7.30664 293.476 7.30664 294.356C7.30664 295.236 7.21777 295.999 7.04004 296.646C6.85775 297.293 6.59798 297.792 6.26074 298.143C5.91895 298.489 5.51107 298.663 5.03711 298.663C4.55404 298.663 4.13932 298.489 3.79297 298.143C3.44661 297.792 3.18229 297.293 3 296.646C2.81771 295.999 2.72656 295.236 2.72656 294.356ZM3.58789 294.356C3.58789 295.008 3.64714 295.575 3.76562 296.058C3.87956 296.541 4.0459 296.913 4.26465 297.172C4.4834 297.432 4.74089 297.56 5.03711 297.555C5.32878 297.56 5.58171 297.434 5.7959 297.179C6.00553 296.919 6.16732 296.548 6.28125 296.065C6.39518 295.582 6.45443 295.012 6.45898 294.356C6.45443 293.709 6.39518 293.146 6.28125 292.667C6.16732 292.184 6.00553 291.813 5.7959 291.553C5.58171 291.289 5.32878 291.157 5.03711 291.157C4.74089 291.157 4.4834 291.289 4.26465 291.553C4.0459 291.813 3.87956 292.184 3.76562 292.667C3.64714 293.151 3.58789 293.713 3.58789 294.356ZM14.4434 290.172V298.54H10.4512V290.172H14.4434ZM13.5684 297.473V291.225H11.3125V297.473H13.5684ZM9.24805 288.819V299.893H8.35938V288.819H9.24805Z" fill="#B5B5B5"/>
</svg>
