<svg width="42" height="45" viewBox="0 0 42 45" fill="none" xmlns="http://www.w3.org/2000/svg">
<g filter="url(#filter0_d_1701_10178)">
<path d="M23.415 10C27.0517 10.0002 29.9998 12.9483 30 16.585V17.875C30 22.8456 25.9706 31.375 21 31.375C16.0294 31.375 12 22.8456 12 17.875V15.9004C12 12.6419 14.6419 10 17.9004 10H23.415ZM21 25.75C20.1716 25.75 19.5 26.4216 19.5 27.25C19.5 28.0784 20.1716 28.75 21 28.75C21.8284 28.75 22.5 28.0784 22.5 27.25C22.5 26.4216 21.8284 25.75 21 25.75Z" fill="#F6804D"/>
<path d="M19.152 15.9375C19.152 17.0244 18.4321 17.9055 17.544 17.9055C16.656 17.9055 15.936 17.0244 15.936 15.9375C15.936 14.8506 16.656 13.9695 17.544 13.9695C18.4321 13.9695 19.152 14.8506 19.152 15.9375Z" fill="#FFFAFA"/>
<path d="M17.9036 16.5135C17.9036 17.1762 17.5276 17.7135 17.0636 17.7135C16.5997 17.7135 16.2236 17.1762 16.2236 16.5135C16.2236 15.8507 16.5997 15.3135 17.0636 15.3135C17.5276 15.3135 17.9036 15.8507 17.9036 16.5135Z" fill="#4A3B35"/>
<path d="M23.1838 15.9375C23.1838 17.0244 22.4638 17.9055 21.5758 17.9055C20.6877 17.9055 19.9678 17.0244 19.9678 15.9375C19.9678 14.8506 20.6877 13.9695 21.5758 13.9695C22.4638 13.9695 23.1838 14.8506 23.1838 15.9375Z" fill="#FFFAFA"/>
<path d="M21.9359 16.5135C21.9359 17.1762 21.5598 17.7135 21.0959 17.7135C20.6319 17.7135 20.2559 17.1762 20.2559 16.5135C20.2559 15.8507 20.6319 15.3135 21.0959 15.3135C21.5598 15.3135 21.9359 15.8507 21.9359 16.5135Z" fill="#4A3B35"/>
<path d="M18.4897 17.7322C18.4897 17.4778 18.2834 17.2712 18.029 17.2711C17.7745 17.2711 17.5679 17.4777 17.5679 17.7322C17.568 17.9866 17.7745 18.1929 18.029 18.1929V18.3848L17.9619 18.3815C17.6548 18.3503 17.4105 18.106 17.3793 17.7989L17.376 17.7322C17.376 17.3717 17.6684 17.0792 18.029 17.0792L18.0956 17.0825C18.4248 17.116 18.6816 17.3942 18.6816 17.7322L18.6783 17.7989C18.6448 18.128 18.3669 18.3847 18.029 18.3848V18.1929C18.2833 18.1928 18.4896 17.9866 18.4897 17.7322Z" fill="#2A67B9"/>
<path d="M20.4477 17.7323C20.4477 17.4779 20.2414 17.2713 19.987 17.2712C19.7325 17.2712 19.5259 17.4778 19.5259 17.7323C19.526 17.9868 19.7325 18.193 19.987 18.193V18.3849L19.9199 18.3816C19.6128 18.3504 19.3685 18.1062 19.3373 17.799L19.334 17.7323C19.334 17.3718 19.6264 17.0793 19.987 17.0793L20.0536 17.0826C20.3828 17.1161 20.6396 17.3943 20.6396 17.7323L20.6363 17.799C20.6028 18.1281 20.3249 18.3849 19.987 18.3849V18.193C20.2413 18.193 20.4476 17.9867 20.4477 17.7323Z" fill="#2A67B9"/>
<path d="M19.4979 17.4858V17.6777H18.6274V17.4858H19.4979Z" fill="#2A67B9"/>
</g>
<defs>
<filter id="filter0_d_1701_10178" x="0.75" y="0.25" width="40.5" height="43.875" filterUnits="userSpaceOnUse" color-interpolation-filters="sRGB">
<feFlood flood-opacity="0" result="BackgroundImageFix"/>
<feColorMatrix in="SourceAlpha" type="matrix" values="0 0 0 0 0 0 0 0 0 0 0 0 0 0 0 0 0 0 127 0" result="hardAlpha"/>
<feOffset dy="1.5"/>
<feGaussianBlur stdDeviation="5.625"/>
<feComposite in2="hardAlpha" operator="out"/>
<feColorMatrix type="matrix" values="0 0 0 0 0.470833 0 0 0 0 0 0 0 0 0 0 0 0 0 0.1 0"/>
<feBlend mode="normal" in2="BackgroundImageFix" result="effect1_dropShadow_1701_10178"/>
<feBlend mode="normal" in="SourceGraphic" in2="effect1_dropShadow_1701_10178" result="shape"/>
</filter>
</defs>
</svg>
