<svg width="72" height="79" viewBox="0 0 72 79" fill="none" xmlns="http://www.w3.org/2000/svg">
<g filter="url(#filter0_d_1652_9835)">
<path d="M40.293 18C46.7585 18.0002 51.9998 23.2415 52 29.707V32C52 40.8366 44.8366 56 36 56C27.1634 56 20 40.8366 20 32V28.4893C20 22.6963 24.6963 18 30.4893 18H40.293ZM36 46C34.5272 46 33.333 47.1942 33.333 48.667C33.3332 50.1396 34.5273 51.333 36 51.333C37.4727 51.333 38.6668 50.1396 38.667 48.667C38.667 47.1942 37.4728 46 36 46Z" fill="#F6804D"/>
<path d="M32.7146 28.5546C32.7146 30.4869 31.4348 32.0533 29.856 32.0533C28.2772 32.0533 26.9973 30.4869 26.9973 28.5546C26.9973 26.6224 28.2772 25.056 29.856 25.056C31.4348 25.056 32.7146 26.6224 32.7146 28.5546Z" fill="#FFFAFA"/>
<path d="M30.4959 29.5786C30.4959 30.7569 29.8274 31.712 29.0026 31.712C28.1779 31.712 27.5093 30.7569 27.5093 29.5786C27.5093 28.4004 28.1779 27.4453 29.0026 27.4453C29.8274 27.4453 30.4959 28.4004 30.4959 29.5786Z" fill="#4A3B35"/>
<path d="M39.8824 28.5546C39.8824 30.4869 38.6025 32.0533 37.0237 32.0533C35.4449 32.0533 34.165 30.4869 34.165 28.5546C34.165 26.6224 35.4449 25.056 37.0237 25.056C38.6025 25.056 39.8824 26.6224 39.8824 28.5546Z" fill="#FFFAFA"/>
<path d="M37.6637 29.5786C37.6637 30.7569 36.9951 31.712 36.1703 31.712C35.3456 31.712 34.677 30.7569 34.677 29.5786C34.677 28.4004 35.3456 27.4453 36.1703 27.4453C36.9951 27.4453 37.6637 28.4004 37.6637 29.5786Z" fill="#4A3B35"/>
<path d="M31.5373 31.7465C31.5373 31.2941 31.1706 30.9269 30.7182 30.9268C30.2658 30.9268 29.8985 31.294 29.8985 31.7465C29.8987 32.1988 30.2659 32.5655 30.7182 32.5655V32.9067L30.5991 32.9008C30.053 32.8453 29.6187 32.4111 29.5632 31.865L29.5574 31.7465C29.5574 31.1055 30.0773 30.5856 30.7182 30.5856L30.8367 30.5915C31.4219 30.651 31.8784 31.1456 31.8784 31.7465L31.8726 31.865C31.8131 32.4501 31.319 32.9066 30.7182 32.9067V32.5655C31.1705 32.5654 31.5371 32.1987 31.5373 31.7465Z" fill="#2A67B9"/>
<path d="M35.019 31.7464C35.019 31.2941 34.6522 30.9269 34.1999 30.9267C33.7475 30.9267 33.3802 31.294 33.3802 31.7464C33.3804 32.1988 33.7476 32.5655 34.1999 32.5655V32.9066L34.0808 32.9008C33.5347 32.8452 33.1004 32.411 33.0449 31.8649L33.0391 31.7464C33.0391 31.1055 33.5589 30.5856 34.1999 30.5856L34.3184 30.5914C34.9036 30.6509 35.3601 31.1455 35.3601 31.7464L35.3543 31.8649C35.2948 32.45 34.8007 32.9065 34.1999 32.9066V32.5655C34.6522 32.5653 35.0188 32.1987 35.019 31.7464Z" fill="#2A67B9"/>
<path d="M33.3298 31.3083V31.6494H31.7822V31.3083H33.3298Z" fill="#2A67B9"/>
</g>
<defs>
<filter id="filter0_d_1652_9835" x="0" y="0.666667" width="72" height="78" filterUnits="userSpaceOnUse" color-interpolation-filters="sRGB">
<feFlood flood-opacity="0" result="BackgroundImageFix"/>
<feColorMatrix in="SourceAlpha" type="matrix" values="0 0 0 0 0 0 0 0 0 0 0 0 0 0 0 0 0 0 127 0" result="hardAlpha"/>
<feOffset dy="2.66667"/>
<feGaussianBlur stdDeviation="10"/>
<feComposite in2="hardAlpha" operator="out"/>
<feColorMatrix type="matrix" values="0 0 0 0 0.470833 0 0 0 0 0 0 0 0 0 0 0 0 0 0.1 0"/>
<feBlend mode="normal" in2="BackgroundImageFix" result="effect1_dropShadow_1652_9835"/>
<feBlend mode="normal" in="SourceGraphic" in2="effect1_dropShadow_1652_9835" result="shape"/>
</filter>
</defs>
</svg>
