<svg width="18" height="14" viewBox="0 0 18 14" fill="none" xmlns="http://www.w3.org/2000/svg">
<path fill-rule="evenodd" clip-rule="evenodd" d="M8.79829 3.30216C11.2854 3.30226 13.6774 4.22435 15.4799 5.87783C15.6157 6.00548 15.8326 6.00387 15.9663 5.87422L17.2638 4.61075C17.3315 4.54499 17.3692 4.45591 17.3687 4.36323C17.3681 4.27055 17.3293 4.18191 17.2608 4.11691C12.5298 -0.257802 5.06606 -0.257802 0.335046 4.11691C0.266514 4.18186 0.22763 4.27047 0.226998 4.36316C0.226366 4.45584 0.264038 4.54494 0.331679 4.61075L1.62954 5.87422C1.76314 6.00407 1.98026 6.00568 2.11592 5.87783C3.91866 4.22424 6.31094 3.30215 8.79829 3.30216ZM8.79494 7.52243C10.1523 7.52235 11.4611 8.03409 12.4673 8.95822C12.6033 9.08937 12.8177 9.08653 12.9504 8.95181L14.2376 7.6325C14.3054 7.5633 14.343 7.46942 14.3421 7.37187C14.3411 7.27432 14.3016 7.18124 14.2324 7.11345C11.1686 4.2226 6.42387 4.2226 3.36004 7.11345C3.29083 7.18124 3.25134 7.27437 3.25044 7.37195C3.24953 7.46953 3.28727 7.5634 3.35521 7.6325L4.64212 8.95181C4.77477 9.08653 4.98914 9.08937 5.12522 8.95822C6.13067 8.0347 7.43851 7.523 8.79494 7.52243ZM11.3194 10.316C11.3213 10.4213 11.2842 10.5229 11.2169 10.5967L9.04026 13.0514C8.97645 13.1236 8.88946 13.1642 8.79869 13.1642C8.70792 13.1642 8.62093 13.1236 8.55712 13.0514L6.38009 10.5967C6.31284 10.5229 6.27585 10.4212 6.27784 10.3159C6.27983 10.2105 6.32064 10.1108 6.39063 10.0402C7.78073 8.72628 9.81665 8.72628 11.2068 10.0402C11.2767 10.1108 11.3174 10.2106 11.3194 10.316Z" fill="#383325"/>
</svg>
